<svg width="127" height="104" viewBox="0 0 127 104" fill="none" xmlns="http://www.w3.org/2000/svg">
<path d="M91.7734 53.8026C92.371 52.8998 92.8824 51.9427 93.3006 50.944C93.5377 50.3681 93.7033 49.8864 93.8321 49.4751C93.8473 49.3896 93.8613 49.303 93.883 49.2099C93.6459 49.224 93.4154 49.2381 93.1556 49.2305C92.9891 49.2295 92.823 49.2154 92.6588 49.1883C92.0235 49.1194 91.4338 48.8257 90.9962 48.3602C90.7302 48.0385 90.5275 47.6694 90.3987 47.2724C90.2829 46.9271 90.1963 46.6035 90.1183 46.2982C90.0382 45.9735 89.9517 45.6434 89.8661 45.324C89.2364 45.4205 88.6019 45.483 87.9654 45.5113C86.9494 45.5621 85.9308 45.504 84.9271 45.3381C84.3614 45.2425 83.8083 45.0831 83.2785 44.8629C82.6231 44.5961 82.0494 44.1616 81.6149 43.603C81.142 42.9553 80.9288 42.154 81.0174 41.357C81.0261 41.3241 81.0312 41.2903 81.0325 41.2563C80.4104 41.1779 79.8163 40.9506 79.3007 40.5939C78.7636 40.196 78.3331 39.6718 78.0472 39.0677C77.7918 38.5319 77.615 37.9621 77.5223 37.3759C77.2936 35.631 77.4555 33.8571 77.9964 32.1824C78.2368 31.3782 78.5604 30.6011 78.9619 29.8639C79.1778 29.4676 79.4257 29.0896 79.7033 28.7338C79.3421 28.3299 79.0571 27.8638 78.8623 27.3581C78.5631 26.4771 78.4971 25.5336 78.6707 24.6196C78.9902 23.1727 79.5344 21.7848 80.2835 20.5064C80.5931 19.9446 80.8875 19.398 81.1765 18.8644C81.3194 18.6057 81.4352 18.3535 81.5499 18.1164L81.932 17.31C82.0608 17.0502 82.1702 16.8056 82.3065 16.5523C82.4429 16.299 82.5945 16.0414 82.7395 15.7946C82.8684 15.5502 83.0202 15.3186 83.193 15.103C83.3587 14.8865 83.5243 14.67 83.6758 14.4698C83.8263 14.3106 83.9778 14.1602 84.1282 14.0238C84.453 13.4977 84.7983 12.9576 85.1868 12.3894C85.3384 12.1588 85.4888 11.9564 85.648 11.7486L85.8785 11.4466L86.0441 11.1944C86.1674 11.0331 86.2733 10.8593 86.3602 10.6759C86.4619 10.4951 86.5691 10.323 86.6557 10.1282C87.0226 9.37915 87.3474 8.58791 87.7219 7.95469C87.9958 7.42423 88.3582 6.94434 88.7935 6.53564C89.0113 6.28622 89.2422 6.04848 89.4851 5.82342C88.276 5.75921 87.0641 5.77368 85.8569 5.86671C83.8842 5.98986 81.9324 6.33998 80.04 6.91016C79.2338 7.15448 78.468 7.5159 77.7669 7.98284C77.5099 8.13242 77.2861 8.3328 77.1091 8.57176C76.9321 8.81071 76.8057 9.08322 76.7375 9.37266L76.5286 10.6174L75.3986 10.4031C74.4526 10.1396 73.4407 10.2615 72.5843 10.7419C72.287 11.0021 72.0604 11.3333 71.9257 11.7046C71.7909 12.0759 71.7524 12.4754 71.8136 12.8656L71.8634 13.8301L71.0213 13.8885C69.9194 13.9524 69.0123 13.9242 68.2135 13.9599C67.549 13.9707 66.8867 14.0381 66.2337 14.1613C65.8348 14.2462 65.4443 14.3669 65.0669 14.5217C64.7941 14.6516 64.6134 14.7306 64.5484 14.6592C64.4835 14.5877 64.5127 14.4135 64.7075 14.1331C65.0237 13.736 65.428 13.4181 65.8885 13.2044C66.5707 12.8755 67.2952 12.6428 68.0414 12.5128C68.6237 12.3904 69.2645 12.3038 69.9269 12.2032C69.9162 11.8396 69.95 11.4761 70.0276 11.1208C70.2034 10.3319 70.6276 9.62018 71.2377 9.09015C71.874 8.56834 72.6404 8.22969 73.4545 8.11056C73.876 8.04297 74.3028 8.01398 74.7296 8.02397C74.8273 7.78151 74.9503 7.55004 75.0966 7.33339C75.4389 6.83625 75.8653 6.40257 76.3565 6.05181C76.9461 5.62357 77.5868 5.2705 78.2637 5.00078C76.5578 4.14459 74.8595 3.34468 73.146 2.64652C72.555 2.4019 71.964 2.15727 71.3817 1.91914C70.7994 1.68101 70.2008 1.47968 69.6174 1.2567C68.5126 0.806675 67.3739 0.444741 66.2121 0.174283C65.1786 -0.0532504 64.1085 -0.0580478 63.0731 0.160211C62.9583 0.188354 62.7927 0.210002 62.7711 0.246804C62.7341 0.25835 62.6979 0.272455 62.6628 0.289018L62.5048 0.383188C62.2818 0.505501 62.0286 0.663534 61.7774 0.822649C61.5263 0.981765 61.2514 1.14737 60.9277 1.30432C60.8452 1.35254 60.7587 1.39347 60.669 1.42664L60.2653 1.55653C60.1346 1.60902 59.9958 1.63833 59.8551 1.64312C59.7195 1.66666 59.5811 1.66921 59.4448 1.6507C59.1725 1.60849 58.9134 1.50485 58.6871 1.34762C58.4834 1.17758 58.2954 0.989569 58.1254 0.785849C58.0711 0.709208 58.011 0.636835 57.9457 0.569365L57.3114 0.482771C57.0386 0.453546 56.7702 0.396178 56.505 0.389683C55.9783 0.346435 55.4497 0.33162 54.9214 0.345304L54.1367 0.374529L53.366 0.467618C51.3101 0.799073 49.3062 1.39728 47.4051 2.24711C45.3821 3.0048 43.5084 3.65425 41.7105 4.44225C39.9887 5.14733 38.3465 6.03301 36.8115 7.08443C36.1342 7.55963 35.5284 8.12935 35.0125 8.77625C34.798 9.06191 34.6211 9.37405 34.4865 9.70496C34.3344 10.3349 34.2736 10.9834 34.3057 11.6306L33.3629 11.6804L32.8953 11.7031C32.852 11.7031 32.6507 11.7248 32.6507 11.7248L32.5424 11.7464C32.2678 11.7804 31.9975 11.8432 31.736 11.9337C31.4579 12.0087 31.1858 12.1046 30.9221 12.2205C30.6533 12.3272 30.3912 12.4501 30.1373 12.5885C29.1114 13.1194 28.15 13.7666 27.2722 14.5174C26.4209 15.221 25.6453 16.0115 24.9579 16.876C24.5185 17.4518 23.0496 18.6468 23.4534 19.345C23.6331 19.6545 24.9006 19.8353 24.4276 20.3895C22.4795 22.5701 20.7187 24.911 19.1638 27.3873C18.5598 28.578 17.998 29.655 17.4503 30.8067C16.9188 31.9811 16.3495 33.0245 15.8018 34.0182C15.2833 35.0043 14.7302 35.9189 14.3265 36.826C14.11 37.273 13.9151 37.6919 13.6857 38.1357C13.4562 38.5795 13.2321 39.0016 13.0156 39.4184C12.1848 40.8069 11.2714 42.1443 10.2804 43.4233C9.87014 43.9699 9.48805 44.4668 9.14276 44.9387C8.7033 45.7375 8.25734 46.5623 7.76701 47.451C7.0743 48.6562 6.3087 49.818 5.47445 50.9299C4.62475 52.1032 3.57373 53.2343 2.87665 54.4293C2.07783 55.4804 2.28565 56.9351 2.03453 58.8348C1.97334 59.3427 1.84973 59.8411 1.66651 60.3188C1.47069 60.783 1.22959 61.2267 0.946703 61.6436C0.481686 62.2012 0.204753 62.8915 0.155456 63.6158L0.147879 63.7598C0.183599 63.7673 0.118654 63.7381 0.212824 63.8897C0.284264 64.0185 0.443379 64.2209 0.629555 64.5391C0.874776 64.9323 1.00455 65.3865 1.00407 65.8499C0.984308 66.1712 0.945999 66.491 0.889335 66.8078C0.6945 67.9227 0.486676 69.0106 0.321066 70.1341C0.136878 71.2438 0.0309016 72.3651 0.00391804 73.4896C-0.0160171 73.9827 0.0402074 74.476 0.17061 74.952C0.186914 75.0146 0.21091 75.0749 0.242049 75.1316C0.262875 75.1221 0.284644 75.1149 0.306994 75.11L0.407659 75.0808L0.610071 75.0234L1.73254 74.7214C1.76176 75.333 1.74769 76.0528 1.80506 76.7152C1.80391 76.7898 1.80862 76.8643 1.81913 76.9382L1.8332 77.0324C1.83741 77.0982 1.84977 77.1633 1.87 77.2261L1.97067 77.5941C2.11149 78.0396 2.39483 78.4264 2.77707 78.6949C3.21913 78.9473 3.72373 79.0691 4.23225 79.0461C4.74077 79.0231 5.23232 78.8563 5.6498 78.5651C6.67427 77.8787 7.53194 76.9716 8.15981 75.9103C8.78768 74.8489 9.16979 73.6604 9.27806 72.4321L9.16982 72.3596L8.96849 72.1799L8.76716 71.9991C8.70979 71.9418 8.74551 71.971 8.72387 71.9493C8.70283 71.9205 8.68606 71.8888 8.67408 71.8552C8.64112 71.88 8.60967 71.9067 8.5799 71.9353C8.35566 72.0749 8.11149 72.1797 7.85577 72.2459C7.56571 72.3192 7.26259 72.324 6.97035 72.26C6.68242 72.1868 6.41602 72.0462 6.19318 71.8497C5.98857 71.671 5.81549 71.4592 5.68119 71.223C5.48478 70.8688 5.33903 70.4888 5.24823 70.0941C5.09532 69.4042 5.04427 68.6956 5.09669 67.9909C5.13998 67.5233 5.13998 67.6521 5.16163 67.5515C5.17544 67.494 5.19692 67.4387 5.2255 67.3869C5.24823 67.3653 5.24065 67.3577 5.219 67.3718L5.1757 67.3869L5.07504 67.4075H4.9235C4.85056 67.4057 4.77801 67.3962 4.70702 67.3794C4.27662 67.2999 3.88862 67.0697 3.61269 66.7299C3.45018 66.5233 3.32557 66.2895 3.24467 66.0393C3.1314 65.6698 3.06378 65.2877 3.04334 64.9017C3.00475 64.2236 3.05313 63.5434 3.18731 62.8776C3.33345 62.2635 3.54426 61.6667 3.81619 61.097C4.0702 60.5724 4.3663 60.0692 4.70161 59.5925C5.05339 59.153 5.37054 58.7135 5.73098 58.3466C6.0254 58.0219 6.32848 57.7275 6.63805 57.4471L6.58718 57.1733C6.47767 56.6674 6.50004 56.1418 6.65212 55.6471C6.7137 55.4266 6.80089 55.214 6.9119 55.0138C7.0042 54.823 7.11515 54.6417 7.24312 54.4726C7.6627 53.8897 8.16478 53.3709 8.73361 52.9323C9.5267 52.2966 10.3861 51.7483 11.2968 51.2968C12.7039 50.5987 13.3848 50.4406 13.427 50.5391C13.4778 50.6539 12.8944 51.0143 11.6345 51.8705C10.8359 52.4084 10.0793 53.0062 9.37115 53.6587C8.91181 54.078 8.51129 54.5575 8.18049 55.0842C7.92917 55.4622 7.78 55.8989 7.74753 56.3517C7.85577 56.3225 7.95751 56.3008 8.07225 56.2792L10.3453 55.883L8.69681 57.3984C8.02532 57.9859 7.39495 58.6188 6.81015 59.2926C6.49811 59.6561 6.2051 60.0354 5.93231 60.4292C5.65944 60.8461 5.42089 61.2844 5.219 61.74C5.0107 62.2087 4.85391 62.6987 4.7514 63.2012C4.66475 63.7247 4.64041 64.2567 4.67888 64.7859C4.69782 65.0283 4.74616 65.2674 4.82284 65.4981C4.83689 65.5566 4.86431 65.6111 4.90294 65.6572C4.92755 65.6816 4.95657 65.7011 4.98845 65.7146C5.0036 65.7211 5.02525 65.7211 5.03932 65.7287H5.07504L5.27637 65.707C5.62447 65.6319 5.9664 65.5306 6.29925 65.404C7.01906 65.1669 7.78216 64.8627 8.35584 64.6841C8.03112 65.2676 7.58516 66.0913 7.25394 66.7148C7.10227 66.9852 6.99277 67.2772 6.92922 67.5807L6.88159 67.9162L6.86644 68.1111C6.83259 68.631 6.87895 69.1531 7.00391 69.6589C7.05647 69.879 7.14108 70.0902 7.25503 70.2857C7.27234 70.3297 7.29978 70.369 7.33512 70.4004C7.35295 70.4164 7.37523 70.4266 7.39899 70.4296C7.41091 70.4336 7.42356 70.435 7.43607 70.4337C7.44859 70.4324 7.46067 70.4284 7.47151 70.422C7.50723 70.408 7.47151 70.4361 7.62954 70.3214C8.12405 69.8545 8.59374 69.3621 9.03668 68.846C9.30188 69.3212 9.56166 69.8029 9.87123 70.2921L9.98596 70.4729C10.0217 70.5227 10.0726 70.6169 10.0801 70.6169L10.1949 70.7251C10.26 70.7919 10.3357 70.8475 10.4189 70.8896C10.7137 71.0597 11.0628 71.1089 11.3931 71.0271C11.7842 70.9051 12.1295 70.6681 12.3839 70.347C12.6384 70.026 12.7903 69.6357 12.8197 69.227L12.8262 69.134L14.2734 69.4078C14.4466 69.4295 14.6111 69.45 14.7778 69.4652L14.7919 69.5226C14.7878 69.5516 14.7903 69.5812 14.7995 69.6091L14.8135 69.7098C14.8206 69.7331 14.8254 69.757 14.8276 69.7812C14.8558 69.7748 14.8785 69.7672 14.9142 69.7607C15.1664 69.6882 15.4251 69.6156 15.6849 69.5442C15.9934 69.4219 16.3105 69.3071 16.6277 69.1848C16.9448 69.0625 17.262 68.8893 17.5845 68.7454C18.8672 68.1327 20.1553 67.3913 21.5159 66.5989C22.8453 65.8718 24.075 64.9757 25.1744 63.933C25.4266 63.6515 25.6778 63.3788 25.9159 63.0897L26.2255 62.6362L26.3835 62.4057C26.4127 62.3559 26.4344 62.3634 26.4701 62.2628L26.5816 61.963C26.7245 61.5744 26.876 61.1782 27.02 60.7896L27.244 60.1921L27.4443 59.5221C27.6975 58.68 27.9501 57.8353 28.202 56.9882C28.4249 57.7459 28.649 58.5036 28.872 59.2699L29.1794 60.3393C29.2544 60.6237 29.3608 60.8989 29.4965 61.1598C29.5372 61.2806 29.6033 61.3913 29.6903 61.4845C29.7476 61.5495 29.7271 61.5213 29.7411 61.5354L29.7628 61.5495C29.7834 61.5787 29.8126 61.5711 29.8267 61.5928C29.889 61.6153 29.9553 61.6249 30.0215 61.6209C30.6122 61.5366 31.1679 61.2901 31.6267 60.9087C32.2606 60.4538 32.8554 59.9469 33.4051 59.3933C33.6931 59.1065 33.9745 58.811 34.2624 58.5079L35.0201 57.6517L35.8763 56.6775C36.1285 56.9719 36.3807 57.2891 36.634 57.5694L37.0074 57.9667L37.094 58.0598L37.1232 58.0814C37.1291 58.0892 37.1368 58.0953 37.1458 58.0991C37.1547 58.1029 37.1645 58.1042 37.1741 58.1031C37.3436 58.1681 37.5266 58.19 37.7067 58.1669C38.257 58.0827 38.7778 57.8629 39.222 57.5272C39.7376 57.1622 40.1819 56.7058 40.5328 56.1807C41.8577 54.2648 40.9864 52.6964 40.8424 50.5575C40.8283 50.3129 40.85 50.0759 40.8348 49.8377L40.8998 49.6862C40.8998 49.6786 40.8283 49.6721 40.8283 49.6721C40.8283 49.6721 40.771 49.6288 40.7558 49.6364C40.7407 49.644 40.5393 49.658 40.5393 49.658L40.3229 49.6721L40.0642 49.6429C39.8972 49.6186 39.7335 49.5757 39.576 49.5152C39.2965 49.4006 39.0368 49.2428 38.8064 49.0476C38.187 48.4289 37.7072 47.6848 37.3992 46.8654C36.8309 45.4433 36.6231 43.9028 36.7942 42.381C36.9457 41.0244 37.3267 39.7034 37.921 38.4745C38.0714 38.1866 38.2078 37.8987 38.3745 37.6324L38.5683 37.2936L38.604 37.2514C38.6473 37.1929 38.7057 37.1291 38.7631 37.0641C38.6981 37.0641 38.6332 37.0641 38.5683 37.0706L38.5185 37.0641H38.4882C38.4346 37.06 38.3816 37.0502 38.3301 37.0349C38.0235 36.987 37.7334 36.864 37.4858 36.6769C37.2382 36.4897 37.0408 36.2442 36.9111 35.9622C36.8399 35.7991 36.7824 35.6304 36.739 35.4578C36.6831 35.1901 36.6494 34.9182 36.6383 34.6449C36.624 34.1839 36.6359 33.7224 36.674 33.2627C36.8049 31.6512 37.2075 30.0735 37.8647 28.5964C38.7444 26.4688 40.0084 24.5216 41.5936 22.852C42.4583 21.9116 43.5073 21.1592 44.6752 20.6417C45.4243 20.3462 45.7977 20.3386 45.8269 20.4187C45.8627 20.527 45.5607 20.7131 44.948 21.145C43.9868 21.8302 43.1287 22.6497 42.4 23.5783C41.0642 25.2551 40.0089 27.1373 39.2751 29.1517C38.7528 30.4961 38.4492 31.9154 38.3756 33.3558C38.3604 33.7519 38.3604 34.1622 38.3821 34.5367C38.3952 34.7059 38.4194 34.874 38.4546 35.04C38.4677 35.087 38.4843 35.133 38.5044 35.1775C38.5217 35.2061 38.5462 35.2298 38.5754 35.2461C38.6046 35.2624 38.6376 35.2709 38.6711 35.2706L38.8648 35.2781L39.2026 35.2565C39.4389 35.2488 39.6745 35.2271 39.9083 35.1915C40.8825 35.0627 41.8566 34.9253 42.8676 34.7954C42.5288 35.2208 42.176 35.6451 41.8307 36.078C41.4713 36.5305 41.06 37.0068 40.7656 37.4527C40.6064 37.6822 40.4408 37.9138 40.2828 38.1444C40.1746 38.3165 40.1821 38.3165 40.1399 38.389L40.0447 38.5687C39.9018 38.7982 39.7935 39.0504 39.6712 39.2961C39.1956 40.3314 38.8939 41.438 38.7782 42.5715C38.7296 43.1592 38.7416 43.7505 38.814 44.3358C38.9025 44.9255 39.0598 45.5027 39.2827 46.0558C39.4835 46.5815 39.7842 47.0633 40.1681 47.4748C40.2162 47.5188 40.2725 47.553 40.3337 47.5755C40.3553 47.5755 40.3618 47.5895 40.3759 47.5895C40.4028 47.5936 40.4303 47.591 40.456 47.582L40.4841 47.5755C40.4917 47.5755 40.4841 47.582 40.5491 47.5397L40.8305 47.3666C41.046 47.237 41.2506 47.09 41.4421 46.9271C41.8599 46.5959 42.2842 46.2722 42.702 45.941C42.7237 46.3437 42.7453 46.755 42.7669 47.1577C42.7821 47.6036 42.8027 48.0571 42.8178 48.5042C42.8395 48.9068 42.8535 49.3171 42.8752 49.7208L42.925 50.3973C42.9858 51.2927 43.1209 52.1816 43.3287 53.0547C43.4806 53.8264 43.8385 54.5427 44.3646 55.1275C44.5863 55.3172 44.8603 55.4353 45.1504 55.4663L45.3951 55.4728L45.5607 55.4522L45.9417 55.3862C46.4829 55.2217 47.0241 55.0615 47.5653 54.8969C47.6302 55.366 47.6948 55.835 47.7591 56.3041L47.8392 57.0315L47.8825 57.5997C47.9174 58.0523 47.9821 58.5022 48.0762 58.9463C48.1197 59.1518 48.185 59.3521 48.271 59.5438C50.0081 57.9634 51.4257 56.0645 52.447 53.9498C52.6139 53.5972 52.7508 53.2311 52.8562 52.8555L53.0153 52.3143L53.0586 52.271C53.0586 52.2634 53.0651 52.1054 53.0651 52.1054C53.0816 52.0223 53.0845 51.9372 53.0737 51.8532C53.0622 51.8061 53.0571 51.7577 53.0586 51.7092L53.0228 51.4505L52.9644 51.1193L52.9146 50.7156C52.8781 50.3158 52.9121 49.9128 53.0153 49.5249C52.5633 48.7079 52.3584 47.7772 52.4254 46.8459C52.5115 45.8604 52.7568 44.8954 53.1517 43.9883C53.6154 42.9339 54.1581 41.9161 54.7753 40.9435C54.709 40.9086 54.6462 40.8673 54.588 40.8201C54.2555 40.5432 54.0023 40.1832 53.8541 39.7767C53.4709 38.3873 53.5873 36.9076 54.1832 35.5953C54.6821 34.738 55.3392 33.9831 56.1196 33.3709C56.308 33.2183 56.4877 33.0678 56.6608 32.9239C56.3585 32.6749 56.1174 32.3598 55.9562 32.0027C55.757 31.5835 55.6331 31.1325 55.5903 30.6703C55.5463 30.271 55.534 29.8689 55.5535 29.4677C55.5931 28.7458 55.6915 28.0283 55.848 27.3224L55.9151 27.0009L55.9876 26.7714L56.1315 26.3103C56.2246 26.0072 56.3253 25.7128 56.4119 25.4184C57.2007 23.3273 58.3976 21.414 59.933 19.7898C60.2133 19.4638 60.5164 19.1582 60.8401 18.8752C61.1421 18.6089 61.4159 18.3426 61.6898 18.1337C62.2732 17.7235 62.7332 17.3566 63.1575 17.126C64.0148 16.6725 64.49 16.4852 64.5398 16.5718C64.6989 16.8164 62.8847 17.7884 60.8108 20.5313C60.5662 20.8842 60.2783 21.2295 60.0261 21.6256L59.2706 22.8877C59.0476 23.3477 58.8094 23.8229 58.5648 24.3208C58.3776 24.8166 58.1762 25.3361 57.9749 25.8676C57.8948 26.1631 57.8093 26.4662 57.7303 26.7758L57.5787 27.2434L57.464 27.4382C57.464 27.4447 57.5214 27.4663 57.5214 27.4663L57.5787 27.5313L57.5571 27.6471C57.4517 28.2629 57.3963 28.8863 57.3915 29.511C57.3604 30.0707 57.4589 30.6301 57.6794 31.1455C57.7439 31.2938 57.8622 31.4122 58.0106 31.4767C58.1923 31.5428 58.3876 31.5625 58.5789 31.5341L61.0923 31.4983L59.3788 33.2475C58.7521 33.8883 58.0896 34.4144 57.4921 34.9469C56.9312 35.4108 56.4583 35.9718 56.0958 36.603C55.9811 36.826 55.5925 38.9843 56.0168 39.0146C56.1449 39.0221 56.2734 39.01 56.3978 38.9789L58.9686 38.3446L57.622 40.6707C56.7661 42.021 56.0034 43.4282 55.3392 44.8824C55.0559 45.5409 54.8811 46.2409 54.8218 46.9552C54.7632 47.5319 54.9278 48.1091 55.2818 48.568L55.7148 49.1017L55.4269 49.8724C55.3413 50.0691 55.3066 50.2843 55.3262 50.498C55.4102 50.9812 55.463 51.4693 55.4843 51.9593C55.4879 52.0967 55.4806 52.2343 55.4626 52.3706L55.442 52.5351L55.4345 52.5795L55.4204 52.6942L55.4128 52.7159L55.3912 52.81L55.1823 53.5439C55.0485 54.0229 54.8751 54.49 54.6638 54.9402C54.0261 56.3174 53.2181 57.6091 52.2587 58.785C51.6586 59.5192 51.0198 60.2209 50.3449 60.887C50.5246 60.9877 50.7119 61.0894 50.9208 61.2042C51.7671 61.6114 52.501 62.2193 53.0586 62.975L53.9364 64.2858L52.421 64.7394C51.9512 64.8696 51.4971 65.0511 51.0669 65.2806C50.9859 65.3273 50.9088 65.3805 50.8364 65.4397L50.7433 65.5111C50.7292 65.5328 50.7076 65.5544 50.6924 65.5761C50.621 65.6626 50.6134 65.6691 50.6134 65.7124C50.6512 66.0159 50.7821 66.3002 50.9879 66.5264C51.2878 66.9118 51.6202 67.2707 51.9816 67.5991L52.9828 68.557L51.8668 69.3234C51.4186 69.5894 51.0485 69.9692 50.7941 70.4242C50.7324 70.5697 50.7169 70.7307 50.7498 70.8853C50.8174 71.1064 50.9197 71.3154 51.0528 71.5045C51.4215 71.9901 51.847 72.4299 52.3204 72.8142C52.8161 73.232 53.3422 73.6206 53.8747 74.046L55.8404 75.6014L53.3508 75.767C53.1069 75.772 52.8638 75.7984 52.6245 75.846C52.5332 75.8606 52.4436 75.8845 52.3572 75.9175C52.4154 76.0635 52.488 76.2034 52.5736 76.3353C53.1149 77.12 53.8844 77.8333 54.575 78.682L55.4031 79.6973L53.97 79.9787C53.8617 80.0003 53.7751 80.0003 53.6528 80.0144C53.5024 80.0501 53.3584 80.0869 53.2069 80.1151C53.0553 80.1432 52.9265 80.18 52.7826 80.2157C52.775 80.3381 52.7685 80.4755 52.7685 80.5903C52.8973 80.5827 53.0348 80.5686 53.1636 80.5545C53.8043 80.547 54.4094 80.5329 54.9853 80.5264C55.2339 80.5159 55.4816 80.4892 55.7267 80.4463C55.8415 80.4246 55.9573 80.4106 56.0731 80.3954C56.1857 80.3666 56.2964 80.3304 56.4043 80.2872C57.1874 80.017 57.9233 79.6258 58.5854 79.1279C59.7944 78.2414 60.6593 77.5151 61.2774 77.133C61.8954 76.7509 62.2212 76.6297 62.2569 76.6946C62.2927 76.7596 62.0632 76.9966 61.5436 77.4718C61.0241 77.947 60.2837 78.7534 59.0963 79.7904C58.3972 80.4074 57.5986 80.9015 56.7345 81.2516C56.611 81.3106 56.4837 81.3612 56.3534 81.4032L55.9356 81.4897C55.6511 81.5596 55.3616 81.6074 55.0697 81.6326C54.7883 81.6543 54.4939 81.677 54.1908 81.6987L53.392 81.7409C53.2621 81.7625 53.1333 81.7852 52.9958 81.8058C52.9997 81.9417 53.0168 82.0769 53.0467 82.2096C53.0646 82.3246 53.0936 82.4377 53.1333 82.5473C53.1755 82.6988 53.2198 82.8503 53.2621 83.0008C53.3771 83.2929 53.5068 83.579 53.6506 83.8581C54.5484 85.0505 55.7384 85.9915 57.1057 86.5901L58.5129 87.324L57.0873 87.929C56.821 88.0438 56.5461 88.1596 56.2733 88.2743C56.0071 88.3609 55.7408 88.4399 55.4669 88.5265C55.3146 88.5579 55.1684 88.6139 55.034 88.6921C55.1563 88.8578 55.2288 88.966 55.3868 89.1598C55.5665 89.3622 55.7473 89.5559 55.9281 89.7572C56.0988 89.9722 56.2951 90.1656 56.5126 90.3331C56.729 90.4998 56.9455 90.6719 57.1523 90.8527C57.3904 90.9955 57.6415 91.1254 57.8797 91.2705C58.1263 91.4205 58.3897 91.5411 58.6644 91.6298C58.9399 91.7511 59.2239 91.8521 59.5141 91.9318C59.8085 92.0108 60.1116 92.0974 60.4147 92.1765L61.3715 92.3713C61.6962 92.4351 62.021 92.4936 62.3652 92.551C62.9064 92.6441 63.4476 92.7306 63.9996 92.8248L64.1219 93.4797C64.1418 93.594 64.1682 93.7071 64.201 93.8185C64.2226 93.9267 64.2302 93.8975 64.2367 93.9484C64.2893 94.0553 64.36 94.1523 64.4456 94.2352C64.6953 94.437 64.9941 94.5689 65.3115 94.6173C66.2468 94.7416 67.1923 94.7706 68.1334 94.7039C68.5869 94.6898 69.034 94.6682 69.4951 94.6465C70.0092 94.6606 70.5216 94.7134 71.0278 94.8046C71.5029 94.9128 71.9857 95.0568 72.4349 95.1791L72.7596 95.2657C72.7967 95.0866 72.8548 94.9126 72.9328 94.7472C73.1634 94.2211 73.4654 93.5154 73.6591 93.1701L74.3789 93.8109L74.7318 94.1205C74.8257 94.1879 74.9274 94.2435 75.0349 94.2861C75.079 94.3112 75.1249 94.3329 75.1723 94.351C75.1873 94.3603 75.2045 94.3652 75.2221 94.3651L75.3369 94.3792C75.4106 94.3942 75.4857 94.4018 75.5609 94.4019C75.7044 94.403 75.8473 94.3833 75.9852 94.3434C76.0357 94.335 76.0843 94.3182 76.1292 94.2937C76.1433 94.2861 76.1649 94.2796 76.1649 94.272C76.1924 94.2592 76.2192 94.2447 76.245 94.2287C76.3044 94.207 76.3619 94.1806 76.4171 94.1497L76.6985 93.9624L76.849 93.8477L76.9139 93.7968C76.9226 93.7817 76.8999 93.7817 76.9074 93.7752C76.9367 93.7611 76.9367 93.7676 76.994 93.7395C77.2691 93.6016 77.5359 93.4476 77.7929 93.2783C77.7939 93.259 77.7917 93.2396 77.7864 93.221C77.7712 93.1842 77.7647 93.1279 77.7571 93.1052C77.7496 93.0824 77.7496 93.077 77.729 93.0554C77.6826 92.9989 77.632 92.946 77.5775 92.8973C77.3684 92.7439 77.1407 92.6177 76.8999 92.5217C76.2579 92.2858 75.5985 92.1005 74.9277 91.9675C74.2003 91.7814 73.4589 91.593 72.7098 91.3993C72.2974 91.3036 71.8911 91.1833 71.4932 91.0388C70.9171 90.8595 70.413 90.5016 70.0536 90.017C69.7224 89.491 69.5684 88.8726 69.6141 88.2527C69.6377 87.7976 69.6978 87.3451 69.7938 86.8997C69.8804 86.4754 69.9811 86.0716 70.0893 85.6755C70.1975 85.2793 70.2408 84.9264 70.3274 84.553C70.4094 84.1725 70.4694 83.7876 70.5071 83.4002C70.5504 83.0041 70.6154 82.623 70.637 82.2096C70.9173 79.0197 70.5645 75.4131 71.674 71.6398C72.3638 69.5966 73.2917 67.6416 74.4385 65.8153C74.1722 65.9428 73.8982 66.0535 73.618 66.1465C73.3665 66.2293 73.1088 66.2919 72.8473 66.3338C72.5532 66.3899 72.2529 66.407 71.9543 66.3846C71.7811 66.377 71.6014 66.3554 71.4434 66.3338L71.1544 66.2547L71.0039 66.219L70.9671 66.2114L70.8589 66.1757C70.847 66.1702 70.8347 66.1655 70.8221 66.1616L70.729 66.1183L70.3686 65.9592C70.0928 65.8255 69.8344 65.6586 69.599 65.4624C69.4645 65.3421 69.3439 65.207 69.2396 65.0597C69.1244 64.9256 69.0339 64.772 68.9723 64.6062C68.8401 64.321 68.7504 64.0179 68.706 63.7067C68.3452 63.9008 67.9779 64.0881 67.6041 64.2685C66.6462 64.7532 65.6103 65.0651 64.5441 65.1896C63.8285 65.2654 63.1113 65.0614 62.5427 64.6203C62.0207 64.1613 61.7022 63.5139 61.6573 62.8202C61.6027 62.2188 61.6344 61.6126 61.7515 61.0202C60.796 61.0064 59.8458 60.8759 58.922 60.6316L58.173 60.3805L58.4046 59.6899C58.7502 58.6855 59.2231 57.7295 59.8118 56.8453C60.2306 56.1975 60.6874 55.5751 61.1799 54.9814C61.9928 54.0234 62.5113 53.5742 62.6271 53.663C62.7429 53.7517 62.4539 54.3763 61.8694 55.4479C61.5891 55.9956 61.2297 56.6504 60.8693 57.4287C60.5911 58.0239 60.3464 58.6343 60.1365 59.2569C60.3887 59.2721 60.6777 59.2645 60.9505 59.2721C61.2676 59.2721 61.5913 59.2645 61.9246 59.2645C62.2851 59.2786 62.6737 59.3219 63.0547 59.3587L63.9693 59.4366L63.768 60.467C63.6077 61.1508 63.5612 61.8562 63.6305 62.555C63.6814 62.843 63.7821 63.0226 63.847 63.0367C64.0186 63.1061 64.2067 63.1238 64.3882 63.0876C65.1798 62.9337 65.9424 62.6568 66.6483 62.2671C67.4482 61.8634 68.2719 61.3665 69.1032 60.834L70.6305 59.8598L70.86 61.6674C70.9109 62.0853 70.9542 62.4944 70.9823 62.8765C70.9884 63.1242 71.0322 63.3694 71.1122 63.6039C71.1198 63.632 71.1263 63.6472 71.1479 63.6472C71.1696 63.6472 71.1414 63.6678 71.1771 63.6905C71.2637 63.7186 71.2702 63.776 71.4218 63.8193L71.609 63.8983L71.6523 63.921L71.6599 63.8918L71.7595 63.9275L72.055 64.0141C72.0848 64.0013 72.1167 63.994 72.1491 63.9925C72.2531 63.9934 72.3568 63.9836 72.4587 63.9633C72.6036 63.9424 72.7459 63.9061 72.883 63.855C73.1956 63.7469 73.4972 63.6092 73.7836 63.4437C74.4197 63.0615 75.0134 62.6127 75.5544 62.1047C76.3258 61.4132 76.9862 60.6071 77.5125 59.7148L80.0021 55.0929L79.8007 60.3123C79.7867 60.606 79.8012 60.9003 79.844 61.1912C79.9535 61.1467 80.0592 61.0935 80.1601 61.0321C80.4604 60.8531 80.7447 60.6485 81.0098 60.4205C81.5758 59.9244 82.0986 59.3813 82.5728 58.7969C83.0173 58.275 83.3944 57.6994 83.6953 57.0834L84.401 55.4998L85.517 56.7457C85.7514 57.0195 86.041 57.2408 86.3667 57.3952C86.5962 57.4958 86.8545 57.5089 87.093 57.432C87.3807 57.2754 87.6317 57.0593 87.8292 56.7979C88.0267 56.5366 88.1661 56.2361 88.2382 55.9166C88.4395 55.305 88.6841 54.6999 88.879 54.0765C88.879 54.1057 89.7352 54.6177 89.8153 54.7454C89.9668 55.0913 90.0499 55.4633 90.0599 55.8408C90.2396 55.6821 90.4124 55.5164 90.5784 55.344C91.0208 54.8659 91.4206 54.3502 91.7734 53.8026ZM22.5203 62.7206C22.2134 63.307 21.8571 63.8661 21.4552 64.3919C20.9708 65.0589 20.3305 65.5974 19.5902 65.9603L19.5112 65.9971C19.482 66.0036 19.5177 65.9971 19.4398 66.0253L19.403 66.0328L19.259 66.0761C19.1625 66.1104 19.0643 66.1393 18.9646 66.1627C18.7132 66.2283 18.4536 66.2575 18.1939 66.2493C18.0429 66.2444 17.8929 66.2223 17.7469 66.1833C17.5785 66.1272 17.4223 66.0394 17.2869 65.9246C17.2349 65.8808 17.1867 65.8326 17.1429 65.7806C16.8167 66.0996 16.4567 66.382 16.0691 66.6228C15.6695 66.8786 15.2208 67.0482 14.7518 67.1207C14.4443 67.1577 14.1326 67.1075 13.8524 66.9756C13.5618 66.8264 13.3305 66.5829 13.1964 66.285C13.03 65.8872 12.9656 65.4541 13.0092 65.0251C12.981 65.0392 12.9518 65.0608 12.9236 65.0749C12.7194 65.2173 12.5052 65.345 12.2829 65.457C11.9652 65.6416 11.5875 65.6933 11.2318 65.601C10.9051 65.4795 10.6351 65.2411 10.4741 64.932C10.3454 64.7276 10.2391 64.5098 10.157 64.2826C10.1064 64.1679 10.0634 64.05 10.0282 63.9297L9.94808 63.6342C9.88656 63.4107 9.84811 63.1815 9.83334 62.9501C9.78959 62.0971 10.019 61.2523 10.4882 60.5385C10.8567 59.9699 11.2892 59.4454 11.7774 58.9755C12.6336 58.1409 13.3609 57.5683 13.834 57.1354C14.307 56.7024 14.5678 56.4805 14.6328 56.5314C14.6977 56.5823 14.5321 56.8983 14.1284 57.4168C13.7246 57.9353 13.0633 58.6075 12.3218 59.4831C11.9197 59.9431 11.5651 60.4425 11.2632 60.9736C10.9325 61.5361 10.7843 62.1873 10.8389 62.8375C10.8538 63.0067 10.8876 63.1737 10.9396 63.3355L11.0327 63.6299C11.0327 63.6439 11.1052 63.789 11.1344 63.8604C11.2033 64.0283 11.2873 64.1895 11.3855 64.3421C11.426 64.4206 11.4855 64.4876 11.5587 64.5369C11.5663 64.5445 11.5663 64.5445 11.5663 64.5369C11.6397 64.5152 11.7099 64.4839 11.7752 64.4439C11.9546 64.3471 12.1274 64.2386 12.2926 64.1191C12.6682 63.8604 13.0709 63.5866 13.5027 63.3355L14.6328 62.686L14.3589 63.9849C14.2893 64.3103 14.2391 64.6396 14.2085 64.971C14.1744 65.2407 14.204 65.5147 14.2951 65.7709C14.3817 65.9149 14.3741 65.9149 14.6198 65.9149C14.9149 65.8558 15.196 65.7408 15.4478 65.5761C15.9797 65.2361 16.4515 64.8104 16.8442 64.3161C16.8931 64.019 16.9703 63.7272 17.0747 63.4448C17.2487 62.9744 17.4707 62.5231 17.7371 62.0983L18.7016 60.5006L18.8174 62.358C18.8343 63.263 18.5307 64.1449 17.9601 64.8476C17.9508 64.864 17.9388 64.8787 17.9244 64.8909C17.9385 65.0056 17.9601 65.0782 17.9958 65.0998C18.0034 65.1279 18.0608 65.1279 18.0824 65.1572C18.1398 65.1572 18.1842 65.1864 18.2556 65.1864C18.4074 65.194 18.5596 65.1842 18.7092 65.1572C18.7882 65.1431 18.8964 65.1074 18.9895 65.0857L19.1335 65.05H19.1486C19.1543 65.0451 19.1616 65.0424 19.1692 65.0424L19.2201 65.0132C19.8241 64.7427 20.3567 64.335 20.7755 63.8225C21.1821 63.3598 21.5526 62.8666 21.8839 62.3472C23.1081 60.4238 23.6049 59.1216 23.7489 59.1714C23.8669 59.2093 23.6147 60.6143 22.5203 62.7206ZM26.3867 32.4206C26.6084 32.6015 26.867 32.7316 27.1444 32.8016L28.1099 33.0895L27.3826 33.8245C26.3477 34.8805 25.4279 36.0434 24.6386 37.2936C24.3635 37.7189 24.1207 38.1643 23.9123 38.626C23.7244 38.9946 23.6278 39.403 23.6309 39.8167C23.6306 39.8604 23.6409 39.9035 23.6609 39.9423C23.6809 39.9811 23.7099 40.0145 23.7456 40.0397C23.887 40.1086 24.0419 40.1456 24.1992 40.1479C24.6456 40.1589 25.0915 40.1105 25.5251 40.004L27.1877 39.6587L26.1151 40.9403C25.23 41.9417 24.2348 42.8401 23.1481 43.6182C22.4218 44.1724 21.741 44.6908 21.1392 45.231C21.7886 45.3316 22.5084 45.324 23.1958 45.4182L23.9015 45.5265L23.5053 46.0882C22.8793 46.929 22.1067 47.6499 21.2247 48.2163C20.4757 48.7207 19.8349 49.1028 19.324 49.4405C18.3022 50.1181 17.827 50.6073 17.7469 50.5359C17.696 50.4991 18.064 49.8799 19.036 49.0595C19.5112 48.6492 20.1379 48.1935 20.8145 47.6631C21.3609 47.2446 21.8648 46.7732 22.319 46.256C22.1025 46.2484 21.8861 46.2484 21.6642 46.2408C21.4044 46.2344 21.1229 46.1986 20.8426 46.177C20.5413 46.1224 20.2435 46.0501 19.9507 45.9605L19.2374 45.7732L19.7851 45.1617C21.0093 43.7794 22.686 42.7068 24.1267 41.3451C23.7721 41.3385 23.425 41.242 23.1178 41.0647C22.9361 40.9485 22.7816 40.7945 22.6648 40.6131C22.5481 40.4317 22.4718 40.2273 22.4413 40.0137C22.3927 39.3706 22.5195 38.7264 22.8083 38.1498C23.0384 37.633 23.308 37.1347 23.6147 36.6593C24.0418 35.9813 24.5057 35.3273 25.0045 34.7001C25.3216 34.3115 25.6312 33.9424 25.9689 33.5777C25.8261 33.4916 25.6932 33.39 25.5728 33.2746C25.3804 33.0857 25.2294 32.859 25.1291 32.6088C25.0289 32.3586 24.9817 32.0903 24.9904 31.8209C25.0909 30.9873 25.4139 30.1962 25.9256 29.5305C26.553 28.6564 27.2541 27.8377 28.0212 27.0832C27.8939 27.0452 27.7706 26.9948 27.6532 26.9327C27.3991 26.8053 27.1869 26.6077 27.0416 26.3634C26.8993 26.1043 26.8537 25.8032 26.9128 25.5137C27.0087 25.095 27.1982 24.7035 27.467 24.3685C27.6843 24.0825 27.9223 23.813 28.1792 23.5621C29.0097 22.7606 29.911 22.036 30.8723 21.3972C31.6473 20.7692 32.5236 20.2776 33.4636 19.9435C32.7814 20.6557 32.0314 21.2996 31.2241 21.8659C30.3548 22.5592 29.5369 23.3145 28.7767 24.126C28.3397 24.5522 28.0134 25.0787 27.8264 25.6598C27.8199 25.768 27.8199 25.8395 27.8696 25.8903C27.9262 25.9725 28.0067 26.0352 28.1002 26.07C28.4121 26.1898 28.7408 26.2603 29.0744 26.2789L30.0821 26.3796L29.4056 27.121C28.4807 28.068 27.629 29.0837 26.8576 30.1594C26.4872 30.6591 26.2469 31.2431 26.1583 31.8588C26.1544 31.9633 26.1727 32.0674 26.2121 32.1642C26.2515 32.2611 26.311 32.3485 26.3867 32.4206ZM36.7779 53.0254C37.5768 52.2677 37.6774 51.5923 37.7857 51.6183C37.8214 51.6324 37.843 51.7991 37.7857 52.1075C37.6638 52.5657 37.442 52.9912 37.1362 53.3534C35.9992 54.6334 34.5126 55.5529 32.8596 55.9988L32.4418 56.1276L32.3184 55.6849C32.0448 54.7053 31.9065 53.6929 31.9071 52.6758C31.9107 52.1663 31.9666 51.6585 32.0738 51.1604C31.92 51.1471 31.7706 51.1029 31.6343 51.0305C31.4306 50.942 31.2374 50.8309 31.0584 50.6993L30.8203 50.498L30.698 50.3973L30.6699 50.3681L30.5973 50.2967C30.5844 50.274 30.57 50.2523 30.554 50.2317L30.3884 50.0228C30.3138 49.9198 30.251 49.8087 30.2012 49.6916C30.0965 49.4708 30.026 49.2354 29.9923 48.9934C29.9104 48.1669 30.0063 47.3324 30.2737 46.5461C30.4902 45.7819 30.7781 45.0556 31.0509 44.3358C31.1375 44.0977 31.2316 43.8595 31.3096 43.6225L31.2316 43.6301L30.7846 43.6799C30.6623 43.7015 30.5973 43.7372 30.4891 43.7524L29.8494 43.8314L29.6827 43.4709C29.1607 42.279 28.8515 41.0049 28.7691 39.7063C28.6802 38.5328 28.7358 37.3527 28.9347 36.1928C29.2436 34.2757 29.8433 32.4171 30.7132 30.6811C32.1755 27.7369 33.7591 26.4478 33.824 26.5344C33.9756 26.6567 32.6431 28.0974 31.4265 31.0058C30.7051 32.7107 30.2183 34.5054 29.9793 36.3411C29.6627 38.4113 29.8708 40.5278 30.5844 42.4968C30.5984 42.4892 31.1256 42.4318 31.1256 42.4318L31.5715 42.381C31.6873 42.3452 31.8021 42.316 31.9244 42.2879L32.8986 42.093L32.747 42.9352C32.6214 43.5588 32.4358 44.1689 32.1928 44.7569C31.9114 45.4918 31.6386 46.19 31.4351 46.8741C31.2151 47.492 31.1248 48.1486 31.1699 48.8029C31.2554 49.1699 31.9904 50.2642 32.4688 49.9936C32.5929 49.7289 32.7396 49.4754 32.9072 49.2359L35.2691 45.9464L33.8814 49.7208C33.81 49.9146 33.7526 50.1094 33.6584 50.3107C33.5617 50.4714 33.4508 50.6232 33.3272 50.7643C33.0842 51.383 32.9455 52.0377 32.917 52.7018C32.8889 53.4783 32.947 54.2555 33.0901 55.0192C34.4584 54.6537 35.7211 53.9706 36.7758 53.0254H36.7779ZM51.1524 52.4204C50.9717 53.0088 50.6582 53.5479 50.2361 53.9961C49.814 54.4443 49.2947 54.7895 48.7181 55.0052L48.3728 55.1416L48.2072 54.7606C47.8052 53.4808 47.6272 52.1413 47.6811 50.8011C47.5447 50.9375 47.4224 51.0814 47.2785 51.2178C47.0121 51.4744 46.7116 51.6929 46.3855 51.8672C46.2848 51.9116 46.169 51.9474 46.0683 51.9896C45.936 52.0206 45.8013 52.0402 45.6657 52.048C45.5068 52.0461 45.3499 52.0126 45.2041 51.9496C45.0582 51.8867 44.9263 51.7954 44.816 51.6811C44.5227 51.3322 44.342 50.9028 44.2975 50.4493C44.2477 50.0842 44.2259 49.7158 44.2325 49.3474C44.2507 48.6304 44.3231 47.9157 44.449 47.2096C44.5497 46.6413 44.6655 46.0871 44.8084 45.5394C44.624 45.5059 44.4502 45.429 44.3014 45.3152C44.1525 45.2013 44.0328 45.0537 43.9522 44.8846C43.8429 44.6742 43.7583 44.4519 43.7 44.2221C43.6032 43.8374 43.5263 43.4479 43.4694 43.0553C43.4626 43.0448 43.4582 43.033 43.4564 43.0207C43.1187 43.2945 42.7951 43.5099 42.5786 43.6983L41.8296 44.339L41.73 43.4168C41.6313 42.2638 41.8658 41.1067 42.4054 40.083C42.7777 39.3307 43.2345 38.6232 43.7671 37.9744C44.6449 36.9083 45.2825 36.4342 45.3431 36.498C45.4297 36.577 44.9469 37.1821 44.2412 38.3122C43.8156 38.9775 43.4532 39.6813 43.1588 40.4142C42.9095 41.0139 42.7519 41.6477 42.6912 42.2944C42.6988 42.2868 42.7053 42.2868 42.7053 42.2792C42.8211 42.171 42.9499 42.0703 43.0516 41.9545C43.1534 41.8387 43.2389 41.7174 43.3385 41.5951L43.9793 40.7887L44.304 41.7088C44.4212 42.0889 44.5123 42.4766 44.5767 42.8691C44.6428 43.2285 44.7142 43.5889 44.8073 43.9126C44.848 44.0549 44.9039 44.1924 44.974 44.3228C44.974 44.3304 44.974 44.3304 44.9805 44.3304C44.9979 44.3116 45.0171 44.2945 45.0379 44.2795C45.1523 44.1728 45.2584 44.0573 45.355 43.9342L47.3564 41.8895L46.3822 44.5176C46.0506 45.4609 45.8046 46.4322 45.6473 47.4196C45.5297 48.0663 45.4603 48.7208 45.4394 49.3777C45.429 49.6802 45.4409 49.983 45.4752 50.2837C45.4908 50.4905 45.555 50.6908 45.6624 50.8682L45.67 50.8747V50.8823C45.6967 50.88 45.7232 50.8753 45.749 50.8682L45.8789 50.8238C46.1072 50.6983 46.3198 50.546 46.5121 50.3703C46.9322 49.9833 47.322 49.5646 47.6779 49.1179L48.4983 48.1437L48.6434 49.3755C48.7211 50.3234 48.7403 51.2753 48.7008 52.2255C48.6885 52.8431 48.7437 53.4601 48.8653 54.0656C49.6759 53.7046 50.3326 53.0685 50.7195 52.2699C50.8435 52.0094 50.9306 51.7329 50.9782 51.4484C51.0215 51.247 51.0648 51.1388 51.1005 51.1388C51.1362 51.1388 51.1806 51.247 51.2087 51.4559C51.256 51.7779 51.2369 52.1061 51.1524 52.4204ZM63.6738 6.09835C62.6369 6.08428 61.3694 6.0767 59.9297 6.17737C59.1861 6.21618 58.4482 6.32932 57.727 6.51508C57.5649 6.5648 57.4079 6.63005 57.2583 6.70991C57.1869 6.75971 57.1501 6.78893 57.1436 6.81058C57.1553 6.83381 57.1647 6.85809 57.1718 6.8831C57.2302 6.93289 57.2443 6.98377 57.3157 7.04871C57.4533 7.18127 57.6002 7.30389 57.7552 7.41565L59.0541 8.40931L57.4304 8.31514C55.35 8.19283 53.1538 7.83996 50.8212 7.82589C49.6475 7.79658 48.4753 7.92731 47.3369 8.21447C46.4893 8.42748 45.7081 8.84821 45.0638 9.43869C45.3658 9.52528 45.683 9.59672 46.0218 9.66166C46.3313 9.73419 46.6333 9.79913 46.9353 9.87057L48.599 10.2451L47.0576 11.0028C44.3919 12.129 41.8613 13.5512 39.5132 15.2426C40.1527 15.3857 40.799 15.4963 41.4496 15.5738L43.3211 15.8336L41.6077 16.5816C40.2769 17.1691 39.1082 18.0701 38.2013 19.2075C37.538 20.062 36.9502 20.9725 36.4446 21.9287C36.456 21.9343 36.4686 21.9369 36.4814 21.9363C36.6535 21.9796 36.8407 22.0304 36.9988 22.0662C37.1568 22.1019 37.3083 22.1376 37.4523 22.1452C37.5962 22.1528 37.7261 22.1528 37.8549 22.1528L38.5044 22.1668L38.1591 22.6269C37.4112 23.6216 36.8266 24.3479 36.4532 24.8815C36.1144 25.4227 35.9207 25.7161 35.8698 25.6944C35.8189 25.6728 35.9131 25.3416 36.1718 24.7148C36.5256 24.0528 36.9125 23.4091 37.3311 22.786C36.805 22.7502 36.3017 22.5911 35.8698 22.5911L35.2799 22.5846L35.531 22.051C36.0668 20.8546 36.7194 19.7139 37.4793 18.6457C38.1221 17.7836 38.9016 17.0326 39.7871 16.4224C39.2438 16.3382 38.7091 16.2057 38.1894 16.0263L37.3679 15.7319L37.9881 15.0976C40.0531 13.2399 42.4163 11.7433 44.9783 10.6705C44.5736 10.5716 44.1759 10.4461 43.7877 10.2949L43.1036 10.0286L43.5214 9.40297C44.3629 8.22172 45.6077 7.38931 47.0208 7.06278C48.2688 6.75892 49.553 6.63068 50.8364 6.68177C52.6558 6.75956 54.4702 6.93008 56.2723 7.19267C56.215 7.07139 56.1879 6.93808 56.1932 6.80408C56.2041 6.61645 56.2644 6.43503 56.368 6.27821C56.4716 6.12138 56.6148 5.99473 56.7832 5.91109C57.0026 5.79587 57.2347 5.70652 57.4748 5.64482C58.2693 5.46842 59.0802 5.37662 59.894 5.37096C61.1653 5.34912 62.4368 5.40189 63.702 5.529C64.8106 5.5298 65.9093 5.73758 66.9416 6.14165C66.92 6.22824 65.7651 6.12 63.6738 6.09835ZM65.7467 76.4554C65.8267 76.4911 65.7467 76.8884 65.5821 77.6136C65.3715 78.6842 64.961 79.7054 64.372 80.6238C64.2784 80.7776 64.1673 80.92 64.0408 81.0481C63.9192 81.1994 63.7868 81.3415 63.6446 81.4735C63.315 81.7381 62.9508 81.9566 62.5622 82.123C62.2017 82.2734 61.8272 82.4315 61.4462 82.5971C61.1057 82.728 60.7874 82.9106 60.5023 83.1383C60.4818 83.1816 60.4666 83.1523 60.3941 83.2822L60.3649 83.3179L60.3573 83.3331L60.3508 83.3688L60.2924 83.4976C60.2227 83.6507 60.1767 83.8135 60.156 83.9804C60.1635 84.1103 60.1635 84.1677 60.1928 84.1601C60.2816 84.2135 60.3835 84.2412 60.4872 84.2402C61.3355 84.2287 62.1636 83.9793 62.8772 83.5204L65.3472 81.9216L63.7561 84.3192C63.6554 84.4707 63.5472 84.6288 63.4465 84.7868C63.0135 85.3994 62.5752 85.932 62.2147 86.4505C62.7958 86.597 63.3981 86.6406 63.9942 86.5793L65.3548 86.4353L64.5051 87.4863C64.2407 87.8467 64.0048 88.227 63.7994 88.624C64.2707 88.4824 64.7172 88.2688 65.1232 87.9907C65.6893 87.6039 66.173 87.1088 66.5466 86.5338C66.7858 86.1636 66.9747 85.7632 67.1083 85.3432C67.1938 85.0401 67.2447 84.8604 67.3021 84.8604C67.3595 84.8604 67.4103 85.0336 67.4179 85.3713C67.4021 85.8731 67.2815 86.366 67.064 86.8185C66.7321 87.5345 66.2394 88.1642 65.6243 88.6586C64.8167 89.3486 63.8056 89.7557 62.7451 89.8179L61.68 89.8612L62.3489 88.9822C62.6111 88.5871 62.8444 88.1737 63.0471 87.745C62.3681 87.7258 61.6979 87.5865 61.0674 87.3337L60.4699 87.0826L60.7719 86.5132C60.9961 86.1046 61.2493 85.7124 61.5296 85.3399C61.1474 85.4287 60.7534 85.4554 60.3627 85.4189C59.992 85.3987 59.6404 85.248 59.3701 84.9935C59.2915 84.9122 59.2215 84.8229 59.1612 84.7273C59.1176 84.6312 59.079 84.5329 59.0454 84.4328C59.0016 84.2538 58.9895 84.0684 59.0097 83.8851C59.047 83.6013 59.1269 83.3247 59.2467 83.0647L59.3258 82.8915L59.3474 82.8493L59.355 82.8276L59.3983 82.7551L59.4416 82.6826C59.5324 82.5504 59.6389 82.4297 59.7587 82.3232C60.1439 82.0169 60.5799 81.7805 61.0468 81.6251C61.4354 81.4811 61.8045 81.3436 62.1768 81.2137C62.4816 81.1014 62.7722 80.9539 63.0428 80.7743C63.1698 80.6747 63.2878 80.5642 63.3956 80.4441C63.5153 80.3404 63.6241 80.2247 63.7204 80.0988C64.303 79.2866 64.7799 78.4035 65.1394 77.4707C65.4403 76.7845 65.6752 76.424 65.7467 76.4533V76.4554ZM58.3743 66.8003C58.987 66.5405 59.3398 66.4182 59.382 66.4983C59.4243 66.5784 59.1656 66.8295 58.6244 67.2181C58.1773 67.5201 57.5419 67.8513 56.8535 68.2832C57.3784 68.5116 57.9337 68.6622 58.502 68.7302L59.92 68.9023L58.6958 69.7228C58.3761 69.9202 58.0848 70.1602 57.8299 70.4361C57.6128 70.6676 57.4761 70.9629 57.4402 71.2782C57.4337 71.4005 57.4911 71.4298 57.5344 71.4947C57.6394 71.5734 57.7634 71.6231 57.8937 71.6387C58.3066 71.686 58.7247 71.654 59.1255 71.5445L60.9472 71.1559L59.7035 72.5511L59.5661 72.7016C59.3136 72.9787 59.0895 73.2804 58.8971 73.6022C58.8164 73.7315 58.7558 73.8724 58.7174 74.02C58.6902 74.0703 58.68 74.128 58.6882 74.1845C58.7034 74.1921 58.7174 74.1921 58.7315 74.1997C58.8583 74.2147 58.9865 74.2121 59.1125 74.1921C59.4381 74.1386 59.7569 74.0493 60.0629 73.9258L60.0921 73.9118L60.1062 73.9042H60.1138L60.143 73.8901L60.2653 73.8316L60.5023 73.7093C60.6615 73.6303 60.8271 73.5513 60.9699 73.4723C61.2232 73.285 61.4819 73.1411 61.719 72.9538C61.956 72.7666 62.1877 72.5793 62.3814 72.3704C62.5752 72.1615 62.77 71.9677 62.9367 71.7653C64.254 70.1027 64.5776 68.714 64.7768 68.7778C64.8926 68.7854 64.8926 70.2759 63.6251 72.2762C63.466 72.5143 63.2658 72.7525 63.0709 73.0112C62.8761 73.2699 62.6098 73.4799 62.3652 73.731C62.1054 73.9615 61.7883 74.178 61.4798 74.4086C61.3282 74.5092 61.1702 74.5883 61.0187 74.6738L60.7816 74.8047L60.6593 74.8762L60.6008 74.9043L60.4926 74.9552C60.1086 75.131 59.7054 75.2614 59.2911 75.3438C59.0341 75.3898 58.7714 75.3945 58.5129 75.3579C58.3426 75.3281 58.1794 75.2671 58.0312 75.1782C57.9456 75.124 57.8659 75.0613 57.7931 74.9909C57.7266 74.9067 57.6666 74.8177 57.6134 74.7246C57.474 74.4095 57.451 74.0551 57.5484 73.7245C57.6137 73.4767 57.7131 73.2391 57.8439 73.0188C57.8721 72.9538 57.9154 72.9029 57.9446 72.8456C57.8481 72.8425 57.7519 72.8327 57.6567 72.8163C57.3024 72.7569 56.9727 72.5973 56.7063 72.3563C56.5645 72.219 56.4518 72.0544 56.375 71.8726C56.2982 71.6907 56.2588 71.4952 56.2593 71.2977C56.2918 70.6881 56.5513 70.1128 56.9867 69.6849C57.055 69.609 57.1272 69.5367 57.2031 69.4684C56.6471 69.2915 56.136 68.996 55.7051 68.6025L55.2808 68.2074L55.7776 67.9271C56.6099 67.4785 57.4786 67.1009 58.3743 66.7981V66.8003ZM71.9457 23.8673C72.2999 23.7421 72.6614 23.6384 73.0281 23.5566C73.3885 23.4711 73.7619 23.3921 74.1224 23.2915C74.294 23.2456 74.4622 23.1877 74.6257 23.1183C74.6549 23.1031 74.7058 23.089 74.7058 23.0826L74.7123 23.075L74.7275 23.0457C74.7497 23.0065 74.7689 22.9656 74.7848 22.9234C74.8281 22.7719 74.8205 22.5716 74.5835 22.2393C74.2546 21.8467 73.9831 21.4094 73.7771 20.9404C73.7193 20.7712 73.6875 20.5942 73.6829 20.4155L73.6667 20.0734C73.6692 19.7723 73.7077 19.4725 73.7814 19.1804C73.8635 18.8545 74.0165 18.5507 74.2294 18.2907C74.4423 18.0306 74.7099 17.8207 75.0132 17.6759C75.3351 17.5252 75.681 17.4325 76.035 17.402C75.8321 17.1061 75.6512 16.7957 75.4938 16.4733C75.3121 16.1084 75.1792 15.7212 75.0987 15.3216C75.0018 14.8477 75.0702 14.3549 75.2925 13.9253C75.4233 13.7235 75.5934 13.5501 75.7925 13.4153C75.9916 13.2805 76.2158 13.1871 76.4517 13.1406C76.8204 13.0591 77.1997 13.0372 77.5753 13.0756C78.0619 13.1231 78.5435 13.2122 79.0149 13.3419C79.3245 12.6517 79.7934 12.0448 80.3831 11.571C80.9034 11.1455 81.48 10.794 82.0966 10.5265C83.1043 10.1098 83.7093 10.0156 83.7451 10.1022C83.7808 10.1888 83.2407 10.4767 82.3552 11.0309C81.8354 11.3537 81.3527 11.7327 80.9156 12.161C80.3628 12.673 79.968 13.3325 79.778 14.0617L79.6774 14.5293L79.1664 14.4146C78.6245 14.273 78.0697 14.1863 77.5104 14.1559C76.9562 14.1126 76.4009 14.2641 76.2861 14.5011C76.2186 14.6957 76.2063 14.9051 76.2504 15.1062C76.3214 15.3987 76.4275 15.6814 76.5665 15.9483C76.8841 16.5503 77.2706 17.1133 77.7182 17.6261L78.662 18.7204L77.1932 18.6197C77.0492 18.6122 76.8977 18.5905 76.7537 18.5905C76.3371 18.5503 75.917 18.612 75.5295 18.7702C75.38 18.8372 75.2478 18.9377 75.1431 19.0638C75.0384 19.1899 74.964 19.3383 74.9255 19.4976C74.8793 19.6795 74.8503 19.8655 74.8389 20.0529L74.8465 20.4198C74.8506 20.478 74.8604 20.5356 74.8757 20.5919C75.0446 20.9636 75.2572 21.3139 75.509 21.6354C75.6733 21.877 75.7881 22.1489 75.8467 22.4353C75.9092 22.7701 75.8613 23.1161 75.7103 23.4213C75.6864 23.4746 75.6574 23.5253 75.6237 23.5729L75.5804 23.6443L75.5588 23.6735C75.5375 23.7131 75.5109 23.7495 75.4797 23.7818C75.4015 23.8646 75.3091 23.9327 75.207 23.9831C75.1446 24.0196 75.0795 24.0511 75.0121 24.0773C74.7967 24.1484 74.5778 24.2084 74.3562 24.257C73.947 24.3436 73.5714 24.3999 73.2121 24.4583L72.8451 24.5232C73.3702 24.9352 73.9922 25.2054 74.6517 25.308C75.3066 25.4303 75.7027 25.4953 75.7027 25.5818C75.7027 25.6684 75.3293 25.7464 74.6095 25.7615C74.1613 25.7693 73.7145 25.7087 73.2846 25.5818C72.6578 25.4018 72.113 25.0096 71.7432 24.4724L71.4694 24.0621L71.9457 23.8673ZM64.9403 46.992L64.8039 46.8329L64.7909 46.8091L64.7259 46.7149L64.7119 46.6868L64.6751 46.6294C64.6137 46.5469 64.5583 46.4601 64.5095 46.3697C64.2374 45.8522 64.0944 45.2766 64.0927 44.6919C64.0984 43.732 64.3349 42.7876 64.7822 41.9382C64.8114 41.8798 64.8472 41.8224 64.8753 41.7651C64.8331 41.7434 64.7898 41.7218 64.7389 41.7001C64.2887 41.4123 63.9291 41.0029 63.702 40.5192C63.513 40.1285 63.3985 39.706 63.3643 39.2733C63.2941 37.9722 63.495 36.6707 63.9542 35.4513C64.6117 33.5564 65.5458 31.7691 66.7262 30.1475C67.4849 29.0282 68.4433 28.0584 69.5535 27.2867C70.3816 26.7541 70.9931 26.7541 71.0223 26.8981C71.0732 27.0637 70.6695 27.3083 70.1218 27.9632C69.3435 28.9076 68.6658 29.9306 68.0998 31.0156C67.2172 32.6214 66.5189 34.3218 66.0183 36.0845C65.7224 37.0239 65.6053 38.0104 65.673 38.993C65.6914 39.1604 65.7375 39.3235 65.8094 39.4757C65.8603 39.6046 65.9242 39.6046 65.961 39.6554C66.2734 39.7385 66.603 39.731 66.9113 39.6338L72.6644 38.2873L67.8779 41.8084C67.4872 42.1479 67.171 42.5648 66.9492 43.0326C66.6817 43.534 66.5291 44.0885 66.5022 44.6562C66.4957 44.8651 66.5823 45.139 66.5606 45.139C66.5996 45.2108 66.643 45.2802 66.6905 45.3468L66.7197 45.3976L66.7479 45.4334C66.793 45.4934 66.8462 45.547 66.9059 45.5925C67.2923 45.7829 67.7334 45.8311 68.1518 45.7289C68.7569 45.6639 69.4507 45.52 70.2257 45.4767L72.2054 45.3684L71.2854 47.0635C70.7469 47.9535 70.2914 48.8913 69.9248 49.8648C69.7384 50.428 69.6865 51.0271 69.7732 51.614C70.2051 51.573 70.632 51.4911 71.0483 51.3693C71.5569 51.2179 72.0548 51.0327 72.5388 50.8151C73.316 50.4699 73.7987 50.1592 73.9059 50.2967C73.9925 50.4125 73.7977 50.8801 73.04 51.5642C72.58 51.9588 72.0745 52.2971 71.5343 52.5719C70.7831 52.9719 69.9572 53.2122 69.1086 53.2776L68.5837 53.3134L68.338 52.7375C67.8914 51.6776 67.7833 50.5057 68.0284 49.382C68.1345 48.9119 68.2816 48.4519 68.4678 48.0074H68.4603C68.0315 48.0811 67.5956 48.1051 67.1614 48.0788C66.6053 48.0414 66.0679 47.8634 65.5994 47.5614C65.3545 47.4029 65.1327 47.2113 64.9403 46.992ZM77.1218 55.1351C76.707 56.4153 76.0252 57.593 75.1215 58.5901L74.472 59.2959L74.2274 58.3314C74.0612 57.7107 73.9672 57.073 73.947 56.4307C73.8312 56.5032 73.7165 56.5671 73.6007 56.6396C72.3991 57.272 71.1148 57.7326 69.7851 58.0078C68.7028 58.2577 67.5976 58.3948 66.487 58.417H65.9978L66.0194 57.9786C66.0714 57.4599 66.2522 56.9624 66.5455 56.5314C66.776 56.172 66.9784 55.9122 67.1354 55.6817C67.445 55.2357 67.5684 54.9543 67.6615 54.977C67.7405 54.9835 67.7697 55.3364 67.5673 55.9057C67.4385 56.3301 67.0997 56.8799 66.9633 57.4601C67.8228 57.3285 68.6736 57.1456 69.5113 56.9124C70.7244 56.607 71.8969 56.1586 73.0043 55.5767C73.484 55.3307 73.9159 55.0008 74.2793 54.6025L76.402 52.0112L75.3076 55.1643C75.1187 55.7719 75.0528 56.4111 75.1139 57.0445C75.6445 56.387 76.1189 55.686 76.5319 54.9489C76.9215 54.1208 77.1434 53.6164 77.2668 53.6597C77.3599 53.6879 77.3469 54.228 77.1218 55.1351ZM84.5233 49.447C84.4329 49.9236 84.2623 50.3814 84.0189 50.8011C83.8682 51.067 83.6649 51.2993 83.4214 51.4841C83.2622 51.6127 83.0755 51.703 82.8758 51.748C82.6761 51.793 82.4688 51.7916 82.2697 51.7439C81.8887 51.63 81.5585 51.3884 81.3345 51.0598C81.1348 50.7851 80.9681 50.4879 80.8377 50.1744C80.7142 49.8745 80.6108 49.5668 80.5281 49.2532C79.7181 49.977 78.8293 50.6073 77.8784 51.1323C77.5969 51.2766 77.3162 51.4209 77.0363 51.5653L76.4528 51.8672L76.2147 51.234C75.8821 50.2702 75.7766 49.2427 75.9062 48.2314C75.9661 47.7362 76.0693 47.2473 76.2147 46.7702C76.025 46.7923 75.8329 46.7825 75.6464 46.7409C75.3183 46.6567 75.0272 46.4664 74.8184 46.1997C74.6562 45.9839 74.5297 45.7434 74.4439 45.4875C74.2324 44.7208 74.1932 43.9168 74.3291 43.1332C74.5164 41.8581 75.0197 41.2325 75.1063 41.2931C75.2145 41.3505 74.9548 41.9913 74.9623 43.1798C74.9419 43.8578 75.0469 44.5337 75.2719 45.1736C75.417 45.5113 75.6389 45.7494 75.8553 45.7776C76.2173 45.7594 76.5646 45.6289 76.849 45.4041L78.3038 44.4679L77.6337 46.0807C77.0793 47.3529 76.9165 48.7615 77.1661 50.1267L77.2949 50.0618C78.4463 49.4227 79.5092 48.636 80.4567 47.7216L81.262 46.9639L81.4352 48.0463C81.5109 48.6364 81.6484 49.2169 81.8454 49.7782C82.0186 50.2826 82.3206 50.7524 82.5371 50.8011C82.7016 50.9017 83.0696 50.6788 83.2948 50.3335C83.5253 50.007 83.7053 49.6475 83.8284 49.2673C84.296 47.8136 84.1737 46.834 84.3393 46.8264C84.3967 46.8264 84.5049 47.0429 84.5764 47.4889C84.6777 48.1394 84.6597 48.8029 84.5233 49.447Z" fill="url(#paint0_linear_244_39)"/>
<path d="M112.331 39.9899C112.348 40.0146 112.369 40.0361 112.393 40.0538L112.664 40.2432L112.906 40.3601C113.453 40.6566 114.064 40.8135 114.686 40.8169C114.839 40.8169 114.992 40.8071 115.144 40.7877C115.906 40.6903 116.639 40.4297 117.291 40.0235C117.344 39.9916 117.393 39.9554 117.44 39.9152C117.46 39.8979 117.481 39.8806 117.503 39.8633C117.548 39.8319 117.581 39.788 117.6 39.7371C117.619 39.6863 117.622 39.631 117.609 39.5784C117.596 39.5258 117.567 39.4784 117.527 39.4423C117.486 39.4062 117.436 39.3832 117.382 39.3762C117.285 39.3621 117.185 39.3491 117.088 39.3253C116.91 39.2777 116.74 39.2048 116.582 39.1088C116.543 39.0844 116.498 39.0703 116.452 39.0677C116.239 39.0584 116.034 38.9827 115.866 38.8512C115.827 38.8205 115.78 38.8011 115.731 38.7951C115.682 38.7892 115.632 38.797 115.586 38.8177C114.584 39.2557 113.494 39.4586 112.401 39.4108C112.293 39.4163 112.224 39.5115 112.184 39.6143C112.17 39.6744 112.171 39.7373 112.189 39.7965C112.206 39.8558 112.239 39.9095 112.284 39.9521C112.301 39.9634 112.316 39.9761 112.331 39.9899Z" fill="url(#paint1_linear_244_39)"/>
<path d="M106.972 36.0705C106.899 36.4851 106.989 36.9117 107.224 37.2612C107.52 37.6724 107.9 38.016 108.34 38.2689L108.556 38.3988L108.664 38.4562L108.671 38.4626H108.679L108.707 38.4778C108.851 38.5427 108.981 38.6142 109.089 38.651C109.233 38.7159 109.233 38.6932 109.312 38.7376C109.363 38.7441 109.435 38.7441 109.491 38.7516C109.529 38.7304 109.566 38.7061 109.6 38.6791L109.787 38.5492L109.838 38.5135L109.931 38.4562L109.982 38.4269C110.011 38.4129 109.988 38.4204 110.075 38.3771C110.21 38.3207 110.354 38.2888 110.5 38.283L110.623 38.2765L110.737 38.3122C111.105 38.4316 111.439 38.6363 111.712 38.9097C111.712 38.9173 111.719 38.9238 111.726 38.9313C111.884 38.888 112.065 38.8447 112.267 38.8014C113.269 38.6178 114.249 38.3275 115.189 37.9355C114.88 37.3672 114.059 37.259 113.49 36.8531C113.08 36.562 112.744 36.1794 112.507 35.7356C112.271 35.2918 112.142 34.799 112.129 34.2964C112.029 31.9855 115.326 30.3737 117.256 30.5242C117.406 30.5347 117.555 30.559 117.702 30.5967C117.572 30.4137 117.457 30.2212 117.356 30.0209C117.299 29.8986 117.233 29.7763 117.177 29.6529L117.068 29.4223L117.003 29.2426C116.917 28.9915 116.838 28.7534 116.751 28.5304C116.468 27.7264 116.264 26.8971 116.14 26.0538C116.106 25.7719 116.096 25.4877 116.11 25.2041C116.075 25.1673 116.046 25.1316 116.01 25.0959C115.923 25.2258 115.844 25.2896 115.779 25.2756C115.693 25.2539 115.657 25.1035 115.635 24.8588C115.619 24.6721 115.614 24.4844 115.621 24.2971C115.48 24.3279 115.343 24.3736 115.211 24.4334L115.182 24.441C114.938 24.6232 114.728 24.8476 114.563 25.1035C114.498 25.1825 114.426 25.2691 114.332 25.3697C114.266 25.4336 114.197 25.4936 114.124 25.5494C114.078 25.5836 114.029 25.6147 113.979 25.6425L113.965 25.6501L113.886 25.6858H113.871L113.835 25.6934L113.764 25.715L113.612 25.7367C113.523 25.7425 113.434 25.7377 113.346 25.7226C113.191 25.7026 113.038 25.6637 112.892 25.6068C112.436 25.3881 111.991 25.1457 111.56 24.8805C111.43 24.7973 111.281 24.7478 111.127 24.7365C111.113 24.7495 111.164 24.7289 111.156 24.743C111.149 24.7571 111.12 24.822 111.091 24.8729L110.724 25.4704L110.177 25.1749C110.148 25.1562 110.116 25.1416 110.084 25.1316C110.076 25.1316 110.076 25.1316 110.076 25.1392C110.013 25.3182 109.96 25.5007 109.918 25.6858C109.887 25.8182 109.846 25.9482 109.796 26.0744L109.723 26.2552C109.694 26.3246 109.661 26.3919 109.622 26.4565C109.372 26.9016 109.085 27.3255 108.765 27.724C108.505 28.0429 108.287 28.3935 108.116 28.7674C108.106 28.7973 108.094 28.8263 108.08 28.854C108.051 28.8939 108.036 28.9422 108.037 28.9915L108.007 29.1777L108.001 29.2718L107.993 29.3227L107.921 29.3433L107.871 29.3509C107.893 29.5374 107.927 29.7225 107.972 29.9051L108.072 30.2796L108.123 30.5383C108.133 30.6462 108.135 30.7547 108.13 30.863C108.118 31.071 108.08 31.2766 108.015 31.4746C107.943 31.6477 107.871 31.8134 107.792 31.979L107.59 32.3383L107.54 32.4249L107.511 32.4682L107.439 32.583L107.323 32.7421C107.193 32.9296 107.078 33.1268 106.978 33.332C106.971 33.3396 106.971 33.3536 106.964 33.3612L108.108 33.7065L107.526 34.6709C107.252 35.0973 107.064 35.5726 106.972 36.0705Z" fill="url(#paint2_linear_244_39)"/>
<path d="M115.18 9.92149C115.236 9.97757 115.296 10.0303 115.359 10.0795C115.511 10.1369 115.662 10.1878 115.828 10.2376C116.13 10.3377 116.425 10.4556 116.713 10.5904C117.399 10.8936 118.023 11.3207 118.553 11.8504C119.007 12.3256 119.406 12.8494 119.744 13.4123C120.375 13.3336 121.014 13.4416 121.584 13.7229C121.795 13.8363 121.993 13.9712 122.175 14.1256C122.368 13.7603 122.501 13.3668 122.57 12.9598C122.628 12.6448 122.623 12.3216 122.556 12.0084C122.527 11.8761 122.481 11.7481 122.42 11.6274L122.398 11.5841L122.312 11.4618L122.117 11.2031L121.708 10.6846C121.836 10.454 121.966 10.2311 122.089 10.0081C122.161 9.87819 122.203 9.81325 122.29 9.64006L122.341 9.50368C122.418 9.33584 122.473 9.15914 122.506 8.97762C122.576 8.62457 122.586 8.26226 122.535 7.90603C122.445 7.25346 122.124 6.65467 121.631 6.21854C121.192 5.84907 120.635 5.64969 120.061 5.65677C119.534 5.64912 119.017 5.79997 118.577 6.08974C117.747 6.74085 117.008 7.50149 116.382 8.3509C116.224 8.54466 116.057 8.73192 115.899 8.9051C115.82 8.9917 115.726 9.07829 115.648 9.15622L115.526 9.27854L115.489 9.30127C115.341 9.40827 115.181 9.49967 115.014 9.57404C114.813 9.63249 114.971 9.68985 115 9.74722C115.057 9.81325 115.123 9.86412 115.18 9.92149Z" fill="url(#paint3_linear_244_39)"/>
<path d="M114.484 33.5398C114.336 33.6704 114.222 33.8347 114.151 34.0189C114.081 34.203 114.056 34.4015 114.079 34.5974C114.199 35.2046 114.915 35.538 115.548 35.8324C115.583 35.8494 115.623 35.8583 115.662 35.8584C115.683 35.8585 115.703 35.8559 115.723 35.8508C115.799 35.8342 115.878 35.8295 115.956 35.8367C116.553 35.9198 117.161 35.8138 117.695 35.5336C118.21 35.2013 119.102 34.3592 118.762 33.5539C118.654 33.268 118.471 33.016 118.233 32.8236C117.995 32.6312 117.711 32.5052 117.408 32.4585C116.871 32.4041 116.328 32.4733 115.821 32.6607C115.314 32.8481 114.857 33.1488 114.484 33.5398Z" fill="url(#paint4_linear_244_39)"/>
<path d="M89.3691 10.5904C89.4124 10.6261 89.4189 10.6705 89.4838 10.7127L89.5629 10.7777C89.5776 10.7928 89.5948 10.8052 89.6137 10.8145L89.7718 10.9C90.182 11.124 90.6074 11.3254 91.0317 11.5343C90.9094 11.793 90.7806 12.0528 90.6496 12.3115C90.5565 12.5485 90.4558 12.7866 90.3552 13.0237L90.3184 13.3127L90.327 13.6288C90.3596 14.1087 90.4765 14.5792 90.6723 15.0186C90.8665 15.4984 91.1338 15.9453 91.4647 16.3435C91.5145 16.4008 91.5653 16.4517 91.6075 16.5015C91.6166 16.2471 91.6603 15.9951 91.7374 15.7525C91.8073 15.4843 91.9242 15.2307 92.0827 15.0034C92.3451 14.6074 92.6654 14.2531 93.0331 13.9524L93.0915 13.895L93.1272 13.8658L93.1337 13.8593L93.1987 13.8084L93.2138 13.8019L93.3286 13.7229C93.4191 13.6566 93.5155 13.5987 93.6165 13.5497C93.741 13.4814 93.871 13.4235 94.0051 13.3766L94.3222 13.2683C94.7184 13.1536 95.0356 13.0821 95.265 12.988C95.4887 12.8982 95.6816 12.7456 95.8203 12.5485C95.9853 12.3228 96.1368 12.0875 96.2738 11.8439C96.4434 11.5271 96.6332 11.2216 96.8421 10.9292C96.964 10.7631 97.0986 10.6068 97.2448 10.4616C97.3206 10.3826 97.4053 10.3126 97.497 10.2527L97.6269 10.152L97.6918 10.1012L97.7275 10.0795L97.7351 10.0719L97.7416 10.0654L97.8141 10.0286L97.8282 10.0221L98.0447 9.92148C98.1735 9.87818 98.3109 9.83488 98.4398 9.80566C98.5924 9.78217 98.7464 9.76807 98.9009 9.76344C98.8576 9.67685 98.8153 9.59026 98.7645 9.48202C98.3477 8.54918 97.7919 7.68496 97.116 6.91885C96.5944 6.36437 95.9506 5.93926 95.2358 5.67732C94.8122 5.5403 94.3711 5.46519 93.9261 5.45435C93.4778 5.49771 93.0448 5.64044 92.6586 5.87216C91.9011 6.30253 91.2141 6.84644 90.6215 7.48496L90.4699 7.6365C90.2595 7.86969 90.0625 8.11471 89.88 8.37038C89.5026 8.85702 89.2639 9.43678 89.1894 10.0481C89.1763 10.2454 89.2408 10.44 89.3691 10.5904Z" fill="url(#paint5_linear_244_39)"/>
<path d="M126.044 102.084C125.998 101.721 125.906 101.365 125.77 101.025C125.628 100.642 125.459 100.269 125.267 99.9093C125.092 99.557 124.877 99.2261 124.626 98.9232C123.145 97.4784 121.922 95.7907 121.011 93.9332C120.524 92.771 120.431 91.4817 120.745 90.2617L120.874 89.793L121.019 89.412C121.112 89.1533 121.205 88.8935 121.3 88.6348C121.487 88.1239 121.666 87.6195 121.81 87.1194C122.108 86.1809 122.133 85.1773 121.883 84.225C121.837 83.9656 121.765 83.7117 121.666 83.4673C121.572 83.2011 121.501 82.9705 121.393 82.6826C121.17 82.114 120.947 81.5367 120.724 80.9507C120.495 80.3528 120.3 79.7424 120.14 79.1225C120.046 78.8054 119.953 78.4893 119.866 78.1722C119.809 77.8474 119.751 77.5162 119.701 77.185C119.481 75.8658 119.346 74.5339 119.297 73.1974C119.261 72.6273 119.145 72.0652 118.953 71.5272C118.75 70.9795 118.463 70.3744 118.175 69.7055C118.037 69.3602 117.894 69.0138 117.786 68.6469C117.729 68.4521 117.67 68.3157 117.613 68.071C117.564 67.8481 117.53 67.6221 117.512 67.3945C117.471 66.6207 117.5 65.8446 117.599 65.076C117.805 63.6807 117.928 62.2743 117.966 60.8643C117.979 60.2707 117.868 59.6809 117.641 59.1325C117.556 58.9483 117.424 58.7894 117.259 58.6713C117.151 58.6064 117.223 58.5923 116.683 58.4484L115.474 58.2037C115.596 57.5987 115.719 56.9644 115.877 56.3463C115.985 55.9707 116.014 55.856 116.078 55.6839L116.245 55.1935C116.474 54.5441 116.734 53.912 116.985 53.2863C117.497 52.0405 118.015 50.8087 118.418 49.5563C118.864 48.3725 119.077 47.1136 119.045 45.849C119.023 45.2995 118.86 44.7648 118.572 44.2968C118.283 43.8287 117.878 43.4432 117.396 43.1776C116.182 43.7738 114.917 44.2603 113.617 44.6313L113.22 44.7536L113.019 44.8121L112.968 44.8262L112.838 44.8554L112.745 44.877L112.343 44.9625L112.14 45.0069L111.874 45.0351C111.55 45.0704 111.225 45.0849 110.9 45.0784C110.777 45.6727 110.545 46.2391 110.216 46.7485C109.855 47.4118 109.43 48.0386 108.948 48.62C108.096 49.6482 107.082 50.5311 105.947 51.2341C105.66 51.4028 105.363 51.5518 105.057 51.68C104.905 51.7453 104.748 51.8006 104.589 51.8456C104.423 51.9014 104.252 51.9423 104.078 51.9679C103.647 52.0593 103.199 52.0369 102.779 51.903C102.335 51.7295 101.958 51.4165 101.707 51.0111C101.386 50.5105 101.239 49.9182 101.289 49.3258C101.197 49.2999 101.1 49.305 101.011 49.3402C100.923 49.3755 100.848 49.4389 100.8 49.5206C100.438 49.9853 100.131 50.4902 99.885 51.0252C99.5027 51.7986 99.2431 52.6268 99.1154 53.4801C99.0488 53.9253 99.0634 54.379 99.1587 54.819C99.2453 55.0777 99.2875 55.2585 99.2161 55.3375C99.1446 55.4165 98.9779 55.3808 98.6749 55.1286C98.2836 54.6621 98.0556 54.0806 98.0254 53.4725C97.9584 52.4446 98.1104 51.4141 98.4714 50.4493C98.6982 49.7704 99.013 49.1241 99.4077 48.5269C99.5665 48.2918 99.7447 48.0702 99.9402 47.8645C100.151 47.6174 100.396 47.4016 100.668 47.2237L100.862 47.0722C100.925 47.0379 100.99 47.0068 101.056 46.9791C101.194 46.9206 101.33 46.8568 101.466 46.7983C101.755 46.6705 102.051 46.5577 102.352 46.4606C102.568 47.1945 102.798 47.9219 103.001 48.7781L103.073 49.0736L103.116 49.2251C103.142 49.3226 103.174 49.4188 103.21 49.513C103.253 49.665 103.316 49.8107 103.397 49.946C103.433 50.0034 103.447 49.9817 103.461 49.9969C103.475 50.012 103.455 50.0034 103.52 49.9893C103.543 49.9833 103.567 49.9808 103.591 49.9817C103.63 49.9754 103.669 49.966 103.707 49.9536C104.12 49.8371 104.514 49.6648 104.88 49.4416C105.799 48.8302 106.62 48.0828 107.314 47.2248C107.696 46.7568 108.036 46.2554 108.329 45.7267C108.513 45.429 108.654 45.1064 108.747 44.7688C108.246 44.6327 107.755 44.462 107.278 44.2579C106.724 44.831 106.025 45.2425 105.255 45.4485C104.637 45.6013 103.991 45.5987 103.375 45.441C102.705 45.2651 102.11 44.8793 101.676 44.3402C101.296 43.8499 101.05 43.269 100.963 42.6548V42.5044C100.647 42.5109 100.308 42.5184 99.9554 42.5109C98.9886 42.5456 98.0321 42.3034 97.1984 41.8127L96.8596 41.5746L96.7806 41.5107L96.7373 41.4815L96.5793 41.3083C96.5641 41.2867 96.4786 41.1795 96.4786 41.1795C96.3325 41.0059 96.2089 40.8146 96.1106 40.6101C95.9648 40.3479 95.8573 40.0661 95.7913 39.7734C95.7312 39.5536 95.6853 39.3302 95.6538 39.1045C95.6257 38.8956 95.604 38.6932 95.59 38.5211L95.5607 38.2537L95.5315 38.0459C95.5211 37.9376 95.4971 37.8311 95.4601 37.7287C95.4677 37.6497 95.4384 37.6573 95.4309 37.6573V37.6497C95.1996 37.5169 94.9496 37.4199 94.6894 37.3618C94.2564 37.2395 93.7542 37.1453 93.174 36.9581C92.8537 36.8518 92.5465 36.7095 92.2583 36.5338C91.9036 36.3146 91.6066 36.0136 91.3924 35.6559C91.2834 35.4707 91.2055 35.2689 91.1618 35.0584C91.1261 34.9578 91.1834 34.8495 91.1542 34.7489L91.2982 34.4674C90.842 34.419 90.407 34.2501 90.0376 33.9781C89.6682 33.7061 89.3778 33.3408 89.1961 32.9196C88.792 32.3832 88.5542 31.74 88.512 31.0697C88.523 30.8019 88.5641 30.5361 88.6344 30.2774C88.5597 30.2103 88.4899 30.1379 88.4255 30.0609C88.3415 29.9715 88.2648 29.8756 88.196 29.7741C88.13 29.6507 88.0661 29.5208 88.0076 29.3985C87.8975 29.1507 87.8344 28.8846 87.8215 28.6137C87.8073 28.4005 87.812 28.1864 87.8355 27.974L87.8929 27.5205C87.9113 27.4036 87.9236 27.2858 87.9297 27.1676C87.9297 27.0669 87.9297 26.9728 87.9362 26.8721L87.9297 26.7714C87.9579 26.411 87.9936 26.0516 88.0228 25.6988L88.0661 25.2301L88.052 24.9638C88.0385 24.9167 88.0288 24.8685 88.0228 24.8199C87.7994 24.0468 87.7044 23.2424 87.7414 22.4385L87.7489 22.3887L87.7565 22.353C87.8848 21.7809 88.1298 21.2414 88.4763 20.7684C88.8039 20.3392 89.1978 19.9651 89.6432 19.66C90.0458 19.372 90.4344 19.1491 90.7581 18.9467C90.8522 18.8893 90.9313 18.8319 91.0103 18.7735C90.5603 18.4943 90.1583 18.1446 89.8196 17.7376C89.3411 17.1648 88.9547 16.521 88.6744 15.8293C88.3928 15.1616 88.2273 14.4507 88.1852 13.7272C88.1852 13.54 88.1776 13.3527 88.1852 13.1655L88.2642 12.5961L88.2999 12.4825C88.2999 12.4597 88.1852 12.3591 88.1852 12.3591C88.143 12.3969 88.0973 12.4306 88.0488 12.4597L87.8182 12.8494L87.6017 13.1655C87.4578 13.3744 87.3062 13.5898 87.1558 13.7987C86.1659 15.3294 85.0223 16.7551 83.7429 18.0537C83.613 18.176 83.4907 18.2842 83.376 18.3849C83.3175 18.5148 83.2753 18.6447 83.2179 18.7821C83.1021 19.0841 82.9874 19.3861 82.8499 19.6665C82.5912 20.2282 82.325 20.7976 82.0511 21.3983C81.469 22.5146 81.0543 23.7105 80.8204 24.9476C80.6754 26.0051 80.9427 28.1721 82.26 28.3031C82.1518 29.2458 81.4536 29.8574 81.0693 30.6638C80.7545 31.3769 80.4968 32.1138 80.2987 32.8676C79.8833 34.1906 79.7556 35.5871 79.9242 36.9635C79.975 37.5935 80.26 38.1817 80.723 38.612C80.9747 38.7567 81.2533 38.8486 81.5418 38.8821C81.8302 38.9156 82.1225 38.89 82.4007 38.8068L84.8134 38.3176L83.731 40.5062C83.5532 40.8364 83.4314 41.1937 83.3706 41.5637C83.3265 41.791 83.3731 42.0264 83.5005 42.2197C84.0017 42.7197 84.6545 43.0394 85.3568 43.1289C87.0171 43.4267 88.7151 43.4486 90.3825 43.1939L91.3177 43.0564L91.5406 43.892C91.7279 44.5837 91.8578 45.2678 91.9736 45.8793C92.0205 46.348 92.1521 46.8043 92.3622 47.2259C92.4553 47.4131 92.8006 47.543 93.2758 47.6004C93.7516 47.652 94.231 47.664 94.7089 47.6361L95.7599 47.621L95.5012 48.5572C95.1634 50.1529 94.5569 51.6796 93.7076 53.072C93.7012 53.0785 93.6936 53.0936 93.6795 53.1001C93.4912 53.5956 93.2725 54.0789 93.0246 54.5473C92.5697 55.3533 92.0441 56.1172 91.4541 56.8302C91.0533 57.349 90.8065 57.9702 90.7418 58.6226C90.5433 59.312 90.487 60.0345 90.5762 60.7463C90.5884 60.8248 90.6076 60.9019 90.6336 60.9769C91.1672 60.5731 92.5278 58.9203 93.2476 59.7862C93.8743 60.5439 93.3126 61.4423 92.9673 62.1762C92.5427 63.0199 92.3556 63.9631 92.4261 64.905L92.4466 65.1063C92.4542 65.1215 92.4618 65.142 92.4759 65.142C92.4951 65.147 92.5155 65.1447 92.5332 65.1355C92.5711 65.1091 92.6073 65.0801 92.6415 65.0489L92.8796 64.84L95.9677 62.0539L94.4989 65.9062C94.128 66.9822 93.9243 68.1088 93.8949 69.2465C93.8372 70.2321 93.8782 71.2209 94.0172 72.1983C94.1329 73.2355 94.3877 74.2524 94.7749 75.2215C94.7801 74.7141 94.8213 74.2077 94.8983 73.7061C94.9914 73.1029 95.1234 72.5063 95.2934 71.9201C95.906 69.8982 96.5825 69.1849 96.7005 69.2639C96.8521 69.358 96.4916 70.1428 96.1756 72.1225C96.08 72.6823 96.0175 73.2472 95.9883 73.8143C95.9389 74.5091 95.9705 75.2073 96.0825 75.8948C96.1195 76.2437 96.2336 76.5801 96.4164 76.8796C96.5993 77.1791 96.8465 77.4343 97.14 77.6266C98.0254 78.1386 98.1986 76.0647 99.0559 76.2877C100.127 76.5691 99.754 80.0177 99.8904 80.7797C99.963 81.3775 100.196 81.9446 100.565 82.4207C100.619 82.4757 100.685 82.5176 100.759 82.543C100.796 82.5549 100.835 82.5618 100.874 82.5635H100.96C100.989 82.5635 101.147 82.4997 101.241 82.478C101.355 82.4433 101.466 82.3999 101.572 82.3481L101.969 82.1186C102.442 81.9041 102.94 81.7488 103.452 81.6565C103.905 82.5635 103.235 83.3277 103.055 84.1763L102.984 84.5227L102.918 84.8745C102.89 85.0055 102.897 85.012 102.882 85.091C102.854 85.3291 102.832 85.5813 102.811 85.8324C102.735 86.8837 102.759 87.9398 102.882 88.9866C102.949 89.5235 103.052 90.0551 103.192 90.5777C103.309 91.0528 103.509 91.5036 103.783 91.9091C104.136 92.4427 105.216 92.3345 105.741 92.183C105.856 92.1472 106.187 91.7359 106.216 91.7359C107.31 91.9167 107.462 96.4596 107.858 97.2562C108 97.6027 108.223 97.9107 108.506 98.1552C108.79 98.3997 109.128 98.5738 109.491 98.6634C109.912 98.7422 110.343 98.752 110.767 98.6926L111.112 98.6352L111.292 98.6125L111.737 98.4837C112.286 98.3257 112.833 98.1676 113.387 98.001C113.509 98.6569 113.639 99.3193 113.762 99.9807C113.819 100.219 113.827 100.233 113.841 100.312L113.898 100.514L114.028 100.874C114.035 100.881 114.035 100.888 114.042 100.895C114.056 100.856 114.073 100.818 114.093 100.781C114.303 100.419 114.579 100.099 114.906 99.8367C115.436 99.4303 116.033 99.1187 116.67 98.9156C117.152 98.7478 117.648 98.625 118.153 98.5487C119.917 98.2748 120.724 98.5627 120.702 98.6569C120.688 98.7857 119.917 98.7208 118.29 99.1743C117.835 99.3023 117.39 99.4637 116.958 99.657C116.428 99.8744 115.937 100.176 115.503 100.55C115.155 100.855 114.92 101.268 114.834 101.723C114.848 101.723 114.848 101.731 114.863 101.731L114.834 101.802C114.815 101.902 114.81 102.004 114.819 102.105C114.835 102.364 114.934 102.612 115.101 102.81L115.122 102.796C115.432 102.334 115.713 101.853 115.964 101.356C116.029 101.414 116.094 101.428 116.166 101.53L116.389 101.983C116.533 102.293 116.706 102.609 116.887 102.932C116.93 103.02 116.983 103.102 117.045 103.178L117.088 103.236L117.108 103.257L117.145 103.293C117.188 103.347 117.242 103.391 117.303 103.423C117.362 103.458 117.411 103.502 117.455 103.502C117.5 103.523 117.55 103.531 117.599 103.523C117.892 103.49 118.162 103.349 118.356 103.127C118.508 102.99 118.645 102.838 118.767 102.674L118.818 102.609L118.911 102.472C119.551 101.572 119.609 101.282 120.618 101.897C121.237 102.279 121.712 102.912 122.302 102.279C122.82 101.709 122.769 100.061 122.885 99.3334L123.108 99.4774L123.403 99.7794C123.591 99.9742 123.771 100.168 123.95 100.363C124.396 100.844 124.801 101.362 125.161 101.911C125.254 102.047 125.391 102.22 125.463 102.307L125.628 102.494C125.696 102.564 125.77 102.627 125.851 102.681C125.879 102.68 125.906 102.672 125.931 102.66C125.955 102.647 125.977 102.63 125.995 102.609C126.056 102.566 126.073 102.429 126.044 102.084ZM91.0936 39.4541C90.7126 39.5115 90.3024 39.584 89.812 39.6197C89.53 39.6446 89.2459 39.6252 88.9699 39.5624C88.7841 39.5094 88.6123 39.416 88.4667 39.289C88.3212 39.1619 88.2054 39.0043 88.1278 38.8274C87.9375 38.2437 87.8357 37.6347 87.8258 37.0208C87.8182 36.7178 87.8031 36.4082 87.7901 36.0921C87.6526 36.156 87.5162 36.222 87.3647 36.2783C86.8484 36.5044 86.2747 36.5649 85.7227 36.4515C85.3879 36.3582 85.0873 36.1703 84.8567 35.9103C84.6611 35.6713 84.5121 35.3978 84.4173 35.1039C84.2607 34.603 84.1783 34.0819 84.1726 33.5571C84.1434 33.0018 84.1586 32.4747 84.1726 31.9725C84.1875 31.5715 84.1799 31.17 84.1499 30.7699C84.1434 30.7699 84.1434 30.7634 84.1358 30.7634C84.002 30.6861 83.8723 30.602 83.7473 30.5112C83.5848 30.3902 83.448 30.2383 83.3446 30.0642C83.2407 29.8712 83.184 29.6565 83.179 29.4374C83.1642 28.9647 83.2787 28.4969 83.5102 28.0844C83.6944 27.7446 83.9085 27.4218 84.1499 27.12C84.5222 26.7436 84.7797 26.2691 84.8924 25.7518L84.8275 25.7085V25.6944C84.8275 25.6663 84.9206 25.6728 84.821 25.5797C84.697 25.4858 84.5643 25.4039 84.4248 25.3351C84.2407 25.2299 84.0693 25.1038 83.9139 24.9595C83.7236 24.7785 83.61 24.5312 83.5968 24.2689C83.5905 24.2045 83.588 24.1398 83.5892 24.0751L83.6109 23.9528C83.6249 23.8944 83.6184 23.916 83.6466 23.8013L83.7191 23.6422C83.7992 23.4732 83.9117 23.3217 84.0503 23.1962C84.2522 23.0146 84.4695 22.8509 84.6998 22.707C85.5062 22.2177 85.9727 22.0305 86.0311 22.0943C86.1026 22.1809 85.6999 22.5414 85.0223 23.1313C84.8483 23.2928 84.6828 23.4633 84.5266 23.6422C84.3826 23.8587 84.3177 23.9528 84.3599 24.1899C84.3826 24.3122 84.519 24.4204 84.8427 24.5568C85.0368 24.6357 85.2247 24.7294 85.4044 24.8372C85.5361 24.9237 85.6506 25.0338 85.7421 25.1619C85.8409 25.3172 85.8959 25.4964 85.9013 25.6804C85.9214 26.093 85.8161 26.5021 85.5993 26.8537C85.4109 27.1849 85.2107 27.4653 85.0158 27.7467C84.6112 28.196 84.3679 28.7673 84.3242 29.3703V29.4212C84.3458 29.4786 84.3242 29.4861 84.4541 29.5868C84.5397 29.6423 84.6286 29.6926 84.7203 29.7373C84.7777 29.7741 84.8362 29.8022 84.9292 29.8672C84.9915 29.9066 85.0495 29.9523 85.1024 30.0035C85.1472 30.0583 85.1881 30.1162 85.2247 30.1767C85.2612 30.2518 85.2857 30.3322 85.2973 30.4149V30.3856C85.3748 30.9195 85.4009 31.4596 85.3752 31.9984C85.3752 32.5093 85.3611 33.0137 85.3828 33.503C85.4044 34.3884 85.6426 35.2673 86.0376 35.3031C86.3542 35.3575 86.6799 35.3176 86.9739 35.1883C87.3371 35.0531 87.6889 34.8891 88.026 34.698L88.8747 34.2455V36.9873C88.8535 37.483 88.8972 37.9793 89.0045 38.4637C89.0771 38.6012 89.0911 38.6726 89.2416 38.7235C89.4244 38.7751 89.6134 38.8014 89.8034 38.8014C90.2288 38.809 90.6531 38.7874 91.0352 38.7733C91.8488 38.6511 92.6788 38.6953 93.4749 38.9032C92.7172 39.2176 91.9124 39.4038 91.0936 39.4541ZM108.589 84.999C108.563 85.0757 108.526 85.1485 108.48 85.2155C108.414 85.2869 108.329 85.3389 108.235 85.3659C106.601 85.5683 106.611 83.2779 106.27 82.1695C105.899 81.0666 105.73 79.9056 105.772 78.7426C105.23 78.475 104.759 78.082 104.398 77.5962C104.038 77.1104 103.798 76.5457 103.699 75.9489C103.552 74.9319 103.684 73.894 104.082 72.9463C104.766 71.3768 105.597 70.7295 105.705 70.8161C105.863 70.9243 105.302 71.7653 104.899 73.2201C104.674 74.0369 104.642 74.8947 104.806 75.7259C104.907 76.1908 105.124 76.6227 105.436 76.9821C105.748 77.3414 106.146 77.6166 106.592 77.7825L106.641 77.8041L107.095 78.0206L107.022 78.4742C106.918 79.6208 107.023 80.7768 107.332 81.8859C107.555 82.6869 107.721 83.5025 107.83 84.3268C107.86 84.1439 107.932 83.9705 108.041 83.8202C108.149 83.67 108.291 83.547 108.456 83.4609C108.544 83.7162 108.595 83.9831 108.607 84.2532C108.626 84.5019 108.618 84.7519 108.584 84.999H108.589ZM109.273 56.237C108.729 56.1625 108.22 55.9265 107.812 55.5594C107.432 56.3943 106.971 57.1901 106.436 57.9353C106.24 58.2049 106.023 58.4583 105.786 58.693C105.491 59.0041 105.11 59.2198 104.691 59.3121C104.477 59.3488 104.258 59.3241 104.058 59.2407C103.992 60.881 103.753 62.5097 103.344 64.0997C103.121 64.8779 102.553 66.5892 101.768 67.0222C100.686 67.6197 99.3276 66.4323 98.9022 65.5165C98.6027 64.8302 98.4412 64.0917 98.427 63.3431C98.4055 62.7979 98.4539 62.2523 98.5709 61.7194C98.7582 60.8264 99.1836 60.4303 99.2334 60.4952C99.3059 60.5526 99.0754 60.9423 99.0396 61.7768C99.0099 62.2745 99.0317 62.774 99.1046 63.2673C99.1848 63.9025 99.3749 64.5189 99.6663 65.089C99.8038 65.3755 100.025 65.6139 100.3 65.7731C100.35 65.8124 100.41 65.8391 100.473 65.851C100.538 65.851 100.544 65.8954 100.645 65.8954L100.962 65.8304L100.968 65.851C100.976 65.8597 101.027 65.851 101.027 65.851C101.06 65.8486 101.091 65.839 101.12 65.8229C101.639 65.6064 102.035 64.6993 102.265 63.7998C102.694 61.6854 102.92 59.5351 102.942 57.3779L102.949 57.327L103.216 53.3318L104.144 57.2404C104.195 57.4924 104.277 57.7371 104.389 57.9689C104.416 58.0265 104.455 58.0778 104.504 58.1193V58.1269H104.511C104.683 58.0613 104.838 57.9577 104.965 57.8238C105.155 57.6378 105.33 57.4381 105.491 57.2263C106.131 56.3489 106.675 55.4054 107.114 54.412L107.481 53.5905L108.043 54.2529C108.369 54.7124 108.837 55.0518 109.375 55.2184C109.749 55.2823 110.16 54.9662 110.457 54.5268C110.971 53.6901 111.355 52.7798 111.595 51.8272C111.763 50.9385 112.001 50.0645 112.307 49.2132C112.509 50.1246 112.484 51.0715 112.235 51.9712C112.087 53.0436 111.745 54.0803 111.228 55.0312C111.044 55.3432 110.805 55.6188 110.522 55.8441C110.169 56.1293 109.721 56.2698 109.268 56.237H109.273ZM116.948 92.8227C116.941 93.0749 116.927 93.3411 116.891 93.6291C116.854 93.9829 116.73 94.3221 116.53 94.6162C116.444 94.7327 116.333 94.8284 116.206 94.8966C116.064 94.9792 115.902 95.0191 115.738 95.0113C115.603 95.0145 115.468 94.9924 115.341 94.9464C115.24 94.9106 115.147 94.8609 115.054 94.8176C114.765 94.6334 114.498 94.4154 114.261 94.1681C114.016 93.9159 113.786 93.6496 113.57 93.3769C113.51 93.5595 113.435 93.7372 113.347 93.9083C113.04 94.5008 112.56 94.986 111.971 95.2992L111.474 95.5579L111.23 95.0968C110.887 94.4097 110.686 93.6605 110.64 92.8941C110.597 92.3355 110.602 91.7742 110.654 91.2164C110.741 90.2952 110.863 89.7832 110.985 89.7767C111.107 89.7702 111.209 90.3093 111.31 91.2088C111.383 92.1502 111.582 93.0777 111.9 93.9668C112.373 93.3718 112.639 92.6387 112.658 91.8788L112.787 90.2303L113.762 91.5909L114.035 91.9795C114.371 92.4526 114.732 92.9068 115.118 93.3401C115.276 93.5166 115.452 93.6759 115.643 93.8152C115.666 93.8228 115.68 93.8369 115.701 93.8445C115.761 93.7129 115.807 93.5753 115.838 93.4342C115.881 93.2177 115.918 92.9796 115.946 92.7566C115.997 92.2966 116.032 91.8496 116.069 91.4393C116.11 90.7788 116.211 90.1234 116.371 89.4812C116.5 89.0136 116.667 88.7972 116.745 88.8188C116.823 88.8405 116.817 89.1067 116.839 89.5462C116.861 89.9857 116.89 90.6546 116.925 91.461C116.944 91.868 116.963 92.3215 116.944 92.8173L116.948 92.8227ZM117.502 81.8502L117.272 82.3698L116.646 82.0743C116.54 82.0222 116.436 81.9644 116.336 81.9011C116.235 81.8654 116.142 81.8297 116.041 81.8004C116.188 82.2983 116.284 82.8096 116.328 83.3266C116.411 84.1257 116.25 84.9311 115.868 85.6376L115.608 86.0706L115.306 85.7393C114.968 85.3659 114.657 85.0271 114.384 84.7316C114.126 84.4372 113.946 84.1558 113.788 83.9393C113.478 83.4933 113.333 83.227 113.384 83.1816C113.435 83.1361 113.679 83.3115 114.082 83.6708C114.284 83.8516 114.515 84.0962 114.81 84.3409C114.983 84.4924 115.177 84.658 115.379 84.8301C115.543 83.5459 115.304 82.2423 114.695 81.1001L114.255 80.1259L115.479 80.4647C115.585 80.4975 115.688 80.5358 115.789 80.5795L116.242 80.7093L116.639 80.8392C116.778 80.2582 116.788 79.6537 116.668 79.0684C116.321 77.3539 114.888 75.8352 115.119 74.0211C115.58 74.2874 115.961 74.8491 116.495 74.913C116.955 74.9715 116.393 71.4146 116.343 71.2057C115.984 69.7012 115.501 68.3546 115.17 67.2008C114.878 66.2979 114.671 65.3699 114.551 64.4287C114.479 63.7587 114.515 63.3918 114.586 63.3853C114.744 63.3853 115.026 64.774 115.925 66.941C116.479 68.2463 116.962 69.5803 117.373 70.9373C117.975 72.7184 117.995 74.6449 117.43 76.4381L117.229 76.9793C117.504 77.5748 117.71 78.2003 117.841 78.8433C118.027 79.8557 117.907 80.9004 117.498 81.8448L117.502 81.8502Z" fill="url(#paint6_linear_244_39)"/>
<path d="M118.29 39.098C118.327 39.098 118.363 39.0906 118.396 39.0763C118.43 39.062 118.46 39.041 118.485 39.0147L118.627 38.8707C118.752 38.7495 118.87 38.6216 118.981 38.4875C119.421 37.9184 119.771 37.285 120.019 36.6096C120.059 36.4962 120.092 36.3805 120.119 36.2632L120.146 36.143C120.166 36.0911 120.179 36.0364 120.184 35.9807C120.194 35.9204 120.183 35.8584 120.154 35.8048C120.124 35.7512 120.078 35.7091 120.021 35.6853C119.965 35.6615 119.902 35.6574 119.843 35.6737C119.784 35.69 119.733 35.7257 119.696 35.775C119.122 36.5817 118.266 37.1427 117.297 37.3467C117.228 37.3616 117.168 37.4025 117.129 37.4609C117.09 37.5192 117.075 37.5904 117.088 37.6595C117.129 37.8825 117.165 38.1055 117.186 38.3252C117.196 38.4099 117.194 38.4955 117.18 38.5796C117.171 38.6403 117.183 38.7024 117.214 38.7555C117.244 38.8086 117.293 38.8496 117.35 38.8718C117.642 38.9808 117.945 39.0559 118.254 39.0959L118.29 39.098Z" fill="url(#paint7_linear_244_39)"/>
<path d="M99.4695 9.27957C99.4892 9.43031 99.499 9.58217 99.4988 9.73419C99.5599 9.72548 99.62 9.71099 99.6784 9.69089L99.6286 9.71903L101.745 8.92454L101.796 8.91047C102.985 8.57991 104.219 8.43389 105.453 8.4775C105.958 8.50973 106.458 8.59647 106.944 8.7362C107.338 8.87518 107.723 9.04118 108.095 9.23303C108.405 9.43544 108.671 9.61512 108.909 9.76666C109.126 9.94634 109.29 10.112 109.427 10.2408C109.694 10.5005 109.816 10.6586 109.78 10.7019C109.743 10.7452 109.563 10.6802 109.238 10.507C109.08 10.4204 108.885 10.3209 108.647 10.191C108.41 10.0892 108.136 9.96691 107.82 9.83052C107.503 9.72228 107.143 9.6227 106.748 9.52853C106.313 9.45111 105.871 9.41991 105.429 9.43544C104.328 9.50726 103.241 9.72567 102.197 10.0849C101.586 10.3587 100.937 10.691 100.249 11.0006L100.199 11.058C99.8262 11.0939 99.4557 11.1518 99.0896 11.2312C98.9739 11.2308 98.8584 11.2402 98.7443 11.2593C98.7227 11.2734 98.7086 11.2669 98.6859 11.2669L98.5213 11.3448L98.4921 11.3741L98.4347 11.4249C98.399 11.4606 98.3557 11.4758 98.3189 11.5256C98.2551 11.6263 98.175 11.6912 98.1024 11.8135C97.9585 12.0365 97.821 12.2963 97.663 12.6048C97.4899 12.9732 97.2799 13.3232 97.0363 13.6493C96.9583 13.7651 96.9074 13.7933 96.849 13.8734L96.7559 13.9664L96.7126 14.0162C96.6985 14.0314 96.6271 14.0963 96.6271 14.0963L96.5903 14.1245C96.3974 14.2798 96.1875 14.4127 95.9647 14.5206C95.5987 14.6755 95.2235 14.8074 94.8411 14.9157L94.6387 14.9958C94.5748 15.0175 94.5673 15.0391 94.524 15.0532C94.4564 15.0827 94.3933 15.1217 94.3367 15.169L94.2577 15.2264L94.236 15.2469L94.1927 15.2913C93.9792 15.4815 93.7928 15.7 93.6385 15.9408C93.5714 16.0322 93.5273 16.1383 93.5097 16.2503C93.4589 16.3294 93.4805 16.4809 93.4654 16.6043C93.4589 16.7472 93.4805 16.9485 93.487 17.1358C93.5025 17.3784 93.5003 17.6219 93.4805 17.8642L93.4231 18.3091L93.3874 18.5332L93.3366 18.6771L93.2424 18.9726L93.1926 19.1155L93.185 19.1523C93.1785 19.1739 93.1201 19.2963 93.1201 19.2963C93.1125 19.3179 93.0475 19.4326 93.0475 19.4326C92.7417 19.9102 92.3307 20.3115 91.8461 20.606C91.4651 20.8658 91.1187 21.0747 90.8308 21.2976C90.3177 21.6304 89.9538 22.1492 89.8155 22.7448C89.8089 22.9671 89.8282 23.1894 89.8728 23.4073C90.0062 24.4338 90.0735 25.4678 90.0741 26.503C90.1109 26.9056 89.8155 28.1515 90.0244 28.4513C90.0384 28.4795 90.0244 28.5368 90.0525 28.5304C90.0601 28.5368 90.0601 28.5444 90.0601 28.5585C90.0601 28.5726 90.1034 28.5877 90.1185 28.6094C90.1467 28.6808 90.3913 28.8031 90.5363 28.9189L91.3785 29.5814L90.9671 30.4235C90.8471 30.6109 90.7815 30.8279 90.7777 31.0504C90.7739 31.2729 90.832 31.4921 90.9455 31.6834C91.2976 32.1158 91.8003 32.3989 92.3526 32.4758L93.4264 32.663L93.2889 33.8071C93.2421 34.0061 93.2572 34.2145 93.3322 34.4046C93.3539 34.462 93.5336 34.607 93.9156 34.7218C94.2977 34.8365 94.7578 34.9307 95.2903 35.0671C95.9929 35.2113 96.6455 35.5366 97.1835 36.0109L97.2203 36.0467L97.2484 36.0824C97.5981 36.5452 97.8219 37.0908 97.8979 37.666L97.9487 37.9907L97.9769 38.271C97.992 38.4648 98.0137 38.6315 98.0342 38.7754C98.0553 38.9183 98.0842 39.06 98.1208 39.1997C98.1425 39.3578 98.1782 39.387 98.1717 39.4379C98.1133 39.4379 98.3005 39.8557 98.3947 39.8557C98.438 39.8557 98.4737 39.8265 98.5094 39.8557C98.9793 40.0553 99.4917 40.1342 99.9999 40.0851C100.662 40.1003 101.418 40.0278 102.318 40.0851L103.701 40.1717L103.413 41.5323C103.347 41.7454 103.328 41.97 103.357 42.1911C103.385 42.4121 103.461 42.6245 103.578 42.8139C103.715 42.9569 103.889 43.0579 104.081 43.1051C104.272 43.1522 104.474 43.1436 104.661 43.0802C105.174 42.9334 105.611 42.5926 105.877 42.1298L106.483 41.1297L107.498 41.6839C108.348 42.1496 109.27 42.4683 110.227 42.6267C110.452 42.667 110.681 42.6862 110.911 42.684C111.112 42.7001 111.315 42.698 111.516 42.6775L111.66 42.67C111.717 42.6624 111.789 42.6483 111.853 42.6342L112.257 42.5552L112.35 42.5336L112.567 42.4686L112.94 42.3604L113.517 42.1883C113.061 42.0905 112.621 41.9329 112.206 41.7196L111.847 41.5399C111.824 41.5268 111.803 41.5124 111.782 41.4966L111.76 41.4825L111.731 41.4598L111.66 41.41L111.516 41.3094C111.386 41.2011 111.242 41.0788 111.134 40.9706L110.867 40.6826C110.731 40.5311 110.601 40.3806 110.493 40.2724C110.344 40.3746 110.182 40.4569 110.011 40.517C109.884 40.552 109.753 40.5738 109.622 40.582L109.6 40.5896L109.513 40.582C109.497 40.5808 109.48 40.5786 109.463 40.5755H109.406L109.154 40.5538C108.905 40.5141 108.661 40.4462 108.427 40.3514C108.25 40.2819 108.076 40.2028 107.908 40.1144L107.851 40.0851L107.736 40.0278L107.628 39.9628L107.419 39.8329C106.73 39.4394 106.141 38.8928 105.698 38.2353C105.234 37.5093 105.062 36.6346 105.216 35.7869C105.285 35.3677 105.414 34.9606 105.598 34.5778C105.454 34.4456 105.345 34.2797 105.281 34.0951C105.173 33.8077 105.153 33.4944 105.224 33.1956C105.27 32.9901 105.338 32.7899 105.425 32.5981C105.575 32.3084 105.748 32.0315 105.943 31.77L106.073 31.5893C106.081 31.5752 106.138 31.4886 106.138 31.4886L106.347 31.1433L106.455 30.9052C106.463 30.8489 106.506 30.7829 106.5 30.7406C106.499 30.5351 106.477 30.3301 106.434 30.1291C106.333 29.4904 106.405 28.8362 106.643 28.2349C106.884 27.712 107.199 27.2267 107.579 26.7942C107.868 26.4727 108.13 26.1284 108.364 25.7648L108.422 25.6717C108.443 25.6208 108.48 25.557 108.486 25.5342C108.5 25.492 108.537 25.3913 108.566 25.3048C108.561 25.2755 108.549 25.2482 108.529 25.2257C108.503 25.1682 108.472 25.1128 108.436 25.0601C108.392 25.1298 108.339 25.1928 108.277 25.2474C108.007 25.4605 107.678 25.5859 107.334 25.6067C106.775 25.6973 106.201 25.6298 105.678 25.4119C105.517 25.3374 105.371 25.2351 105.245 25.1099C105.154 25.0211 105.081 24.9161 105.029 24.8003C104.752 24.6838 104.498 24.5181 104.28 24.3111L103.797 23.85L104.474 23.5913C105.122 23.2908 105.834 23.1548 106.547 23.1951C106.716 23.1785 106.885 23.1832 107.052 23.2092C107.45 23.2826 107.826 23.4504 108.146 23.6984C108.445 23.9246 108.683 24.2224 108.837 24.5644C108.915 24.3974 109.019 24.2443 109.146 24.1108C109.33 23.9304 109.568 23.8161 109.824 23.7861C109.981 23.7761 110.139 23.7911 110.292 23.8305C110.299 23.8208 110.309 23.813 110.32 23.8078C110.529 23.6183 110.801 23.5133 111.084 23.5134C111.46 23.5294 111.825 23.6517 112.135 23.8662C112.617 24.1682 112.984 24.4778 113.308 24.6434C113.368 24.68 113.434 24.7067 113.502 24.7224C113.524 24.7224 113.559 24.7506 113.559 24.7376C113.632 24.7376 113.654 24.7148 113.654 24.7083C113.659 24.6952 113.67 24.6847 113.683 24.6791C113.733 24.6358 113.804 24.5709 113.876 24.4994C114.154 24.1606 114.51 23.894 114.913 23.7223C115.175 23.6457 115.447 23.6067 115.72 23.6064C115.78 23.3758 115.877 23.1565 116.008 22.957C116.073 22.8856 116.138 22.8141 116.203 22.734L116.231 22.7124L116.339 22.6409L116.382 22.6117L116.469 22.5608C116.54 22.5251 116.57 22.497 116.67 22.4526C116.771 22.4082 116.893 22.3876 117.009 22.3595C117.233 22.3149 117.463 22.3161 117.686 22.363C117.91 22.4099 118.121 22.5015 118.308 22.6323C118.518 22.7763 118.691 22.969 118.811 23.194C118.921 23.4646 118.963 23.7576 118.935 24.0481C118.906 24.3386 118.808 24.6179 118.649 24.8623C118.489 25.1068 118.273 25.3091 118.019 25.4521C117.764 25.5951 117.479 25.6745 117.188 25.6836C117.036 25.6714 116.886 25.6397 116.742 25.5894C116.77 25.6977 116.793 25.8059 116.828 25.9282C117.063 26.694 117.353 27.442 117.694 28.1667C117.795 28.3831 117.896 28.6061 118.004 28.8443L118.069 28.9806C118.072 28.991 118.077 29.0009 118.083 29.0099L118.104 29.0532L118.162 29.1322C118.227 29.2469 118.299 29.3627 118.363 29.485C118.504 29.6964 118.655 29.9005 118.817 30.0966C118.983 30.3055 119.184 30.5296 119.372 30.7461C119.824 31.232 120.245 31.7465 120.632 32.2863C120.744 32.4333 120.842 32.5897 120.926 32.7539C120.956 32.6251 120.984 32.4877 121.019 32.3589C121.265 31.3847 121.567 30.4863 121.863 29.6009C122.472 28.011 122.94 26.3701 123.259 24.6975C123.295 24.3165 123.548 23.9853 123.554 23.5751C123.561 23.1648 123.706 22.747 123.706 22.3368V22.1062L123.519 21.8183L123.381 21.2424C123.339 20.8604 123.245 20.4848 123.18 20.1189C122.99 18.7603 122.574 17.4431 121.948 16.2222C121.693 15.7486 121.331 15.3409 120.891 15.0315C120.486 14.8264 120.026 14.758 119.58 14.8367L119.019 14.9092L118.81 14.499C118.5 13.8564 118.115 13.2523 117.665 12.6989C117.262 12.2402 116.782 11.8552 116.247 11.5613C115.997 11.4123 115.737 11.28 115.469 11.1651C115.204 11.0504 114.944 10.9346 114.711 10.8199C114.284 10.6214 113.847 10.4458 113.401 10.2938C113.091 10.1743 112.756 10.1349 112.427 10.1791C112.325 10.2026 112.23 10.2493 112.148 10.3155C112.067 10.3818 112.002 10.4658 111.958 10.5612C111.923 10.6467 111.895 10.7333 111.859 10.8058C111.844 10.8924 111.822 10.9638 111.808 11.0223C111.772 11.1381 111.743 11.1955 111.707 11.1955C111.672 11.1955 111.65 11.1305 111.621 11.0158C111.607 10.9573 111.592 10.8859 111.577 10.7993C111.578 10.6839 111.586 10.5686 111.599 10.454C111.634 10.2779 111.712 10.113 111.825 9.97364C111.938 9.83425 112.083 9.72456 112.249 9.65409C112.508 9.55548 112.785 9.51377 113.061 9.53178C113.509 9.23752 113.935 8.91198 114.337 8.5576C114.386 8.50267 114.432 8.44445 114.474 8.38333C109.447 6.15897 103.918 6.50426 98.5332 6.59735C98.7857 7.01366 98.9932 7.4556 99.1524 7.91573C99.3069 8.35759 99.4133 8.81486 99.4695 9.27957ZM101.673 35.907C101.361 36.0378 101.039 36.1417 100.709 36.2177C100.487 36.2689 100.256 36.2759 100.031 36.2382C99.8927 36.212 99.7592 36.1634 99.6362 36.0943C99.515 36.0114 99.4058 35.9124 99.3115 35.7999C99.0347 35.3751 98.8711 34.8866 98.8363 34.3808C98.8006 34.1221 98.7714 33.8623 98.7573 33.5961C98.4631 33.6962 98.1533 33.7428 97.8427 33.7335C97.6752 33.7189 97.5094 33.69 97.3469 33.6469C97.1749 33.5861 97.0123 33.5012 96.8641 33.3947C96.5817 33.1862 96.3643 32.9016 96.2374 32.5743C96.0193 32.0099 95.9191 31.4069 95.943 30.8023C95.9479 30.4403 95.9739 30.0789 96.0209 29.7199C95.0902 29.5835 94.2503 29.0871 93.6818 28.3377C93.3342 27.8592 93.1273 27.2931 93.0844 26.7032C93.0382 26.1052 93.1953 25.509 93.5303 25.0114C93.8572 24.5442 94.3125 24.1818 94.8411 23.968C94.5862 23.6931 94.4056 23.3578 94.3161 22.9938C94.2468 22.6026 94.2601 22.2012 94.3554 21.8154C94.4507 21.4297 94.6257 21.0682 94.8693 20.7543C95.5531 19.8053 96.5139 19.091 97.6197 18.7096C98.3216 18.4416 99.0843 18.3742 99.8224 18.5148C100.334 18.6306 100.565 18.8038 100.543 18.8535C99.6301 18.839 98.7234 19.0103 97.8784 19.3569C96.9794 19.7806 96.2166 20.4467 95.6757 21.2803C95.5257 21.488 95.4191 21.7237 95.3622 21.9735C95.3053 22.2232 95.2993 22.4819 95.3444 22.734C95.4484 22.9825 95.611 23.2021 95.8183 23.374C96.0257 23.546 96.2716 23.6651 96.5351 23.7212L98.8461 24.5124L96.3565 24.822C96.1768 24.8436 95.9896 24.8729 95.8023 24.8945C95.6291 24.9367 95.457 24.9952 95.2838 25.045C94.9774 25.1786 94.7149 25.3958 94.5261 25.6717C94.3513 25.9732 94.2715 26.3205 94.2972 26.6681C94.3228 27.0157 94.4528 27.3475 94.6701 27.62C94.9129 27.9258 95.2231 28.1713 95.5765 28.3373C95.9299 28.5033 96.3169 28.5853 96.7072 28.5769L97.4205 28.5845L97.2906 29.2826C97.0499 30.2194 97.0425 31.201 97.269 32.1413C97.4205 32.4866 97.5785 32.6457 97.9098 32.6738C98.2941 32.6694 98.6738 32.5888 99.0268 32.4368L99.7315 32.1987L99.725 32.8903C99.7033 33.3531 99.708 33.8168 99.739 34.2791C99.7337 34.6396 99.8099 34.9967 99.962 35.3236C100.056 35.5249 100.287 35.5466 100.611 35.5325C100.913 35.5007 101.212 35.445 101.504 35.3658C102.614 35.0855 103.276 34.9491 103.305 35.0498C103.333 35.1504 102.754 35.4578 101.673 35.9114V35.907ZM109.603 18.439C109.439 18.5169 108.954 17.6683 108.207 16.3716C107.795 15.6291 107.299 14.9358 106.73 14.3052C106.461 13.9918 106.113 13.7557 105.723 13.6211C105.65 13.6287 105.659 13.5854 105.528 13.593L105.319 13.6211L105.277 13.6861L105.262 13.6655C105.082 13.7521 105.104 13.7294 105.082 13.8084C105.067 14.0077 105.089 14.2081 105.147 14.3994L105.58 16.1486L104.173 15.0034C103.865 14.7559 103.52 14.5593 103.15 14.4211C103.095 14.398 103.037 14.3834 102.978 14.3778C103.058 14.7 103.164 15.0152 103.295 15.3205C103.366 15.5013 103.431 15.6734 103.496 15.8466C103.577 16.0457 103.635 16.2534 103.668 16.4657L103.77 17.2072L103.109 16.9344C102.367 16.6249 101.827 16.4311 101.446 16.3012C101.013 16.207 100.77 16.128 100.776 16.0425C100.782 15.957 101.014 15.8758 101.46 15.8185C101.803 15.8224 102.146 15.8564 102.483 15.9202C102.447 15.8553 102.418 15.7968 102.382 15.7329C102.163 15.34 101.994 14.9216 101.878 14.4871C101.832 14.2899 101.837 14.0844 101.892 13.8896C101.907 13.8528 101.921 13.8171 101.943 13.7738L101.971 13.724L101.985 13.6948C101.994 13.6807 102.044 13.6157 102.044 13.6157L102.101 13.5584C102.186 13.4629 102.288 13.3847 102.403 13.3278C102.746 13.1928 103.126 13.1825 103.476 13.2986C103.615 13.3497 103.757 13.393 103.901 13.4285C104.009 13.4425 104.816 12.2627 105.5 12.3049C106.314 12.4616 107.044 12.9067 107.556 13.5584C108.145 14.2941 108.619 15.1144 108.963 15.9916C109.558 17.4453 109.737 18.374 109.603 18.439ZM114.377 17.1639C114.481 16.8592 114.608 16.5631 114.759 16.2785C114.857 16.0974 114.975 15.9281 115.112 15.7741C115.208 15.6738 115.317 15.5868 115.436 15.5154L115.573 15.4656L115.638 15.4429L115.673 15.4288C115.679 15.4288 115.685 15.4265 115.689 15.4224C115.693 15.4184 115.695 15.4129 115.695 15.4071C115.631 15.4071 115.796 15.379 115.782 15.379L115.919 15.3855C116.107 15.3974 116.29 15.4572 116.448 15.5593C116.607 15.6614 116.737 15.8024 116.826 15.9689C116.956 16.1887 117.053 16.4266 117.113 16.6746C117.171 16.888 117.214 17.105 117.244 17.3241C117.715 17.1923 118.201 17.1196 118.69 17.1076C119.113 17.093 119.532 17.2033 119.893 17.4248C120.001 17.4959 120.1 17.5803 120.188 17.6759L120.202 17.6975L120.281 17.8133L120.295 17.8415L120.317 17.8924L120.368 17.9865C120.391 18.0205 120.41 18.0568 120.426 18.0948C120.447 18.1684 120.464 18.2433 120.476 18.3188C120.514 18.4523 120.521 18.5924 120.498 18.7291C120.446 19.0767 120.329 19.4114 120.152 19.7152C120.101 19.8169 120.066 19.8948 120.037 19.9674C120.486 20.2059 120.913 20.4856 121.311 20.803C121.77 21.1547 122.106 21.6439 122.268 22.1993C122.36 22.5593 122.34 22.9387 122.211 23.2871C122.103 23.5101 122.016 23.6119 121.959 23.5967C121.815 23.5675 121.952 23.0414 121.649 22.4223C121.015 21.6063 120.137 21.0136 119.144 20.7305L118.798 20.5865L118.835 20.1903C118.961 19.6597 119.122 19.138 119.317 18.6284C119.338 18.6641 119.302 18.4119 119.23 18.4271C119.061 18.3469 118.875 18.3097 118.689 18.3188C118.085 18.3489 117.487 18.458 116.912 18.6436L116.198 18.8384L116.147 18.1327C116.168 17.5267 116.053 16.9238 115.81 16.3683C115.496 16.6794 115.245 17.0466 115.067 17.4507C114.556 18.387 114.298 18.991 114.161 18.9661C114.025 18.9412 114.02 18.2517 114.373 17.1639H114.377Z" fill="url(#paint8_linear_244_39)"/>
<defs>
<linearGradient id="paint0_linear_244_39" x1="0" y1="0" x2="88.9947" y2="12.2949" gradientUnits="userSpaceOnUse">
<stop offset="0.110577" stop-color="#A5C7DD"/>
<stop offset="0.26698" stop-color="#8EAEC7"/>
<stop offset="0.524648" stop-color="#4C6487"/>
<stop offset="1" stop-color="#172037"/>
</linearGradient>
<linearGradient id="paint1_linear_244_39" x1="112.175" y1="38.7932" x2="116.778" y2="40.5287" gradientUnits="userSpaceOnUse">
<stop offset="0.110577" stop-color="#A5C7DD"/>
<stop offset="0.26698" stop-color="#8EAEC7"/>
<stop offset="0.524648" stop-color="#4C6487"/>
<stop offset="1" stop-color="#172037"/>
</linearGradient>
<linearGradient id="paint2_linear_244_39" x1="106.947" y1="24.2971" x2="117.227" y2="25.3561" gradientUnits="userSpaceOnUse">
<stop offset="0.110577" stop-color="#A5C7DD"/>
<stop offset="0.26698" stop-color="#8EAEC7"/>
<stop offset="0.524648" stop-color="#4C6487"/>
<stop offset="1" stop-color="#172037"/>
</linearGradient>
<linearGradient id="paint3_linear_244_39" x1="114.913" y1="5.65649" x2="122.23" y2="6.5886" gradientUnits="userSpaceOnUse">
<stop offset="0.110577" stop-color="#A5C7DD"/>
<stop offset="0.26698" stop-color="#8EAEC7"/>
<stop offset="0.524648" stop-color="#4C6487"/>
<stop offset="1" stop-color="#172037"/>
</linearGradient>
<linearGradient id="paint4_linear_244_39" x1="114.071" y1="32.4405" x2="118.507" y2="33.3064" gradientUnits="userSpaceOnUse">
<stop offset="0.110577" stop-color="#A5C7DD"/>
<stop offset="0.26698" stop-color="#8EAEC7"/>
<stop offset="0.524648" stop-color="#4C6487"/>
<stop offset="1" stop-color="#172037"/>
</linearGradient>
<linearGradient id="paint5_linear_244_39" x1="89.1877" y1="5.45435" x2="98.4304" y2="6.5936" gradientUnits="userSpaceOnUse">
<stop offset="0.110577" stop-color="#A5C7DD"/>
<stop offset="0.26698" stop-color="#8EAEC7"/>
<stop offset="0.524648" stop-color="#4C6487"/>
<stop offset="1" stop-color="#172037"/>
</linearGradient>
<linearGradient id="paint6_linear_244_39" x1="79.8521" y1="12.3591" x2="124.264" y2="15.5145" gradientUnits="userSpaceOnUse">
<stop offset="0.110577" stop-color="#A5C7DD"/>
<stop offset="0.26698" stop-color="#8EAEC7"/>
<stop offset="0.524648" stop-color="#4C6487"/>
<stop offset="1" stop-color="#172037"/>
</linearGradient>
<linearGradient id="paint7_linear_244_39" x1="117.083" y1="35.6639" x2="120.035" y2="36.0378" gradientUnits="userSpaceOnUse">
<stop offset="0.110577" stop-color="#A5C7DD"/>
<stop offset="0.26698" stop-color="#8EAEC7"/>
<stop offset="0.524648" stop-color="#4C6487"/>
<stop offset="1" stop-color="#172037"/>
</linearGradient>
<linearGradient id="paint8_linear_244_39" x1="89.8142" y1="6.52155" x2="122.012" y2="10.6998" gradientUnits="userSpaceOnUse">
<stop offset="0.110577" stop-color="#A5C7DD"/>
<stop offset="0.26698" stop-color="#8EAEC7"/>
<stop offset="0.524648" stop-color="#4C6487"/>
<stop offset="1" stop-color="#172037"/>
</linearGradient>
</defs>
</svg>
